M48
;Layer_Color=9474304
;FILE_FORMAT=4:2
METRIC,TZ
;TYPE=PLATED
T01F00S00C0.65
T02F00S00C0.70
T03F00S00C0.71
T04F00S00C0.80
T06F00S00C0.85
T07F00S00C0.89
T08F00S00C0.90
T09F00S00C0.95
T10F00S00C1.00
T11F00S00C1.09
T12F00S00C1.10
T13F00S00C1.20
T14F00S00C1.30
T15F00S00C1.50
;TYPE=NON_PLATED
T16F00S00C0.95
%
T01
X15240Y6264
Y6464
T02
X1020Y2524
X1520
X2163
X2663
X3306
X3806
X4449
X4949
X5605
X6105
X6748
X7248
X7814Y3124
X8315
X16997Y3924
X17497
X17179Y1448
X16679
X17031Y5782
Y5982
X18732Y7328
Y7528
X13458Y7760
X12958
X7654Y6591
X7154
X4200Y3975
X3700
X1888Y9322
X1388
X8218Y8153
X8718
T03
X4244Y2888
X5954Y2047
X6657Y3800
X6906Y3706
X8801Y3340
X9368Y2451
X9715Y2390
X10450Y2916
X13185Y3195
X18418Y2710
X18979Y7774
X14501Y6683
X14399Y5769
X14122Y5994
X13614Y5769
X13056Y5982
X13106Y6794
X11989Y6464
X11980Y5429
X12129Y5232
X12143Y5081
X11989Y4928
X12134Y4731
X12535Y4585
Y5194
X12555Y5436
X12306Y5639
X11582Y5900
X11163Y5906
X11227Y6883
X11735Y6896
X10719Y6868
X9855Y7137
X9274Y7315
X9014Y6162
X10160Y5771
X9957Y5050
X9505Y5006
X10498Y5019
X10780Y5131
X10668Y4473
X11786Y4508
X11575Y4801
X11576Y5048
X8352Y7838
X8184Y7747
X6828Y7648
X6515Y7709
X6007Y7648
Y7175
X6043Y6111
X5375Y5880
X6226Y5362
X6629Y5512
X7447Y5189
X7238Y4968
X4851Y6980
X4674Y7544
X2502Y7252
X2883Y6515
X3785Y5144
X1676Y8141
X5042Y8331
X6134Y8090
X6388Y8202
X4940Y9728
X4432Y9545
X8923Y8832
X9657Y8547
X16515Y9550
X18009Y8826
X17757Y8462
X18034Y8052
X18479Y8026
Y8217
T04
X17018Y6531
Y6731
T06
X820Y1228
Y1889
X1720
X1963
Y1228
X1720
X2863
X3106
Y1889
X2863
X3365Y3157
X1334Y3004
X952
Y3904
X1334
X4597Y3119
X4249Y1889
X4006
Y1228
X4249
X5149
X5405
Y1889
X5149
X6305
X6548
Y1228
X6305
X7448
Y1889
X7614Y3543
X8515
X13081Y3917
Y3017
X15120Y3188
Y3924
X16020
Y3188
X16105Y2464
X17755
X17900Y5359
X17805Y5994
Y6248
Y6502
X17000Y5359
X16300Y5410
X15400
X14796Y5479
X14224Y5492
X13652Y5479
X13183
X12789Y5492
Y4592
X13183Y4579
X13652
X14224Y4592
X14796Y4579
X14852Y7480
X15367Y7259
X13952Y7480
X13678Y7468
X12778
X11354Y5479
X10871
X10465
Y4579
X10871
X11354
X9035Y3988
X8135
X8018Y6833
Y7518
X8918
Y6833
X7880Y6045
X7841Y5474
X6941
X6979Y6045
X5301Y6718
Y7137
Y7518
X4401
Y7137
Y6718
X4597Y4019
X3365Y4057
X3108Y4630
X3693
Y5530
X3108
X2524
X1940
Y4630
X2524
X2667Y8478
X2210
Y9378
X2667
X4401Y8115
X5301
X10795Y8097
X11303Y8098
X11887
Y8998
X11303
X10795Y8997
X12471Y8998
X12992Y9010
X13500Y8984
X14021Y8959
X14503Y8984
Y8084
X14021Y8059
X13500Y8084
X12992Y8110
X12471Y8098
X15367Y8159
X16987Y8649
X17887
T07
X8000Y4483
X8254
X8508
X8762
X9016
X9270
X9524
X9778
X10032
Y4737
X9778
X9524
X9270
X9016
X8762
X8508
X8254
X8000
X7746
Y4483
X7492
X7238
X6984
X6730
X6476
Y4737
X6730
X6984
X7238
X7492
Y9055
Y9309
X7238
X6984
X6730
X6476
X6222
X5968
Y9055
X6222
X6476
X6730
X6984
X7238
X7746
Y9309
X8000
Y9055
X8254
Y9309
X8508
Y9055
X8762
Y9309
X9016
Y9055
X9270
Y9309
X9524
Y9055
X9778
Y9309
X10032
Y9055
T08
X8962Y250
X9211
X9461
X9712
X11256
X11506
X11756
X11786Y1832
Y2182
X9436Y2156
Y1806
X12006Y250
X13487
X13737
X13987
X14237
X14110Y1832
Y2182
X15392Y2057
Y2311
Y2565
Y1803
Y1549
Y1295
Y1041
X15900Y1168
Y1422
Y1676
Y1930
Y2184
Y2438
Y2692
Y914
T09
X3274Y9055
X3528
X3782
Y9309
X3528
X3274
X4036
X4290
X4544
X4798
X5052
X5306
X5560
Y9055
X5306
X5052
X4798
X4544
X4290
X4036
T10
X829Y182
X1029
X1768Y293
X1968
X2708
X2908
X3686
X3886
X4702
X4902
X5690Y295
X5890
X6769Y305
X6969
X7761Y295
X7961
X15496Y293
X15696
X16256Y6007
Y6261
Y6515
T11
X16802Y1892
X17056
X16929Y2042
X16853Y2896
X17107
X16980Y3046
X17005Y3492
X18979
X18562Y4788
X15888
X15959Y8255
X17932
T12
X9055Y3111
Y3365
X9360Y3099
X9614
X11367Y3200
Y3454
X11697Y3188
X11951
X13767Y3124
Y3378
X14122Y3137
X14376
T13
X4189Y4470
Y4724
X4443
Y4470
X4697
Y4724
X4951
Y4470
X5205
Y4724
X5459
Y4470
X5713
Y4724
X5967
Y4470
T14
X7798Y1245
Y2680
X8052
X8306
X8560
X8814
X9068
X9322
X9576
X10160Y2654
X10414
X10668
X10922
X11176
X11430
X11684
X11697Y1232
X11443
X11189
X10935
X10681
X10427
X10173
X9576Y1245
X9322
X9068
X8814
X8560
X8306
X8052
X11951Y1232
X12484Y1257
X12738
X12992
X13246
X13500
X13754
X14008
X14262
X14275Y2667
X14021
X13767
X13513
X13259
X13005
X12751
X12497
X11938Y2654
T15
X16701Y558
X17209
X18237
X18745
T16
X19380Y8242
Y8902
M30
