G04*
G04 #@! TF.GenerationSoftware,Altium Limited,Altium Designer,24.2.2 (26)*
G04*
G04 Layer_Color=8388736*
%FSLAX42Y42*%
%MOMM*%
G71*
G04*
G04 #@! TF.SameCoordinates,1B85D7C3-CB2C-498D-ACBB-91D5DC165851*
G04*
G04*
G04 #@! TF.FilePolarity,Negative*
G04*
G01*
G75*
%ADD20C,1.37*%
%ADD21R,1.48X0.70*%
%ADD22R,1.53X2.18*%
%ADD23R,2.48X1.18*%
%ADD24R,1.63X0.78*%
%ADD25C,1.63*%
%ADD26C,1.58*%
%ADD27R,1.58X1.58*%
%ADD28C,1.65*%
%ADD29C,1.50*%
%ADD30C,1.88*%
%ADD31C,1.39*%
%ADD32R,1.39X1.39*%
%ADD33C,1.43*%
%ADD34C,1.20*%
%ADD35R,1.20X1.20*%
%ADD36R,1.88X1.88*%
%ADD37R,1.43X1.43*%
%ADD38C,1.68*%
%ADD39C,0.55*%
%ADD40R,1.60X1.60*%
%ADD41C,1.60*%
%ADD42C,1.48*%
%ADD43R,1.48X1.48*%
%ADD44R,1.48X1.48*%
%ADD45R,1.43X1.43*%
%ADD46C,1.35*%
%ADD47R,1.50X1.50*%
G04:AMPARAMS|DCode=48|XSize=1.68mm|YSize=1.68mm|CornerRadius=0.44mm|HoleSize=0mm|Usage=FLASHONLY|Rotation=90.000|XOffset=0mm|YOffset=0mm|HoleType=Round|Shape=RoundedRectangle|*
%AMROUNDEDRECTD48*
21,1,1.68,0.80,0,0,90.0*
21,1,0.80,1.68,0,0,90.0*
1,1,0.88,0.40,0.40*
1,1,0.88,0.40,-0.40*
1,1,0.88,-0.40,-0.40*
1,1,0.88,-0.40,0.40*
%
%ADD48ROUNDEDRECTD48*%
G04:AMPARAMS|DCode=49|XSize=3.58mm|YSize=1.38mm|CornerRadius=0.36mm|HoleSize=0mm|Usage=FLASHONLY|Rotation=0.000|XOffset=0mm|YOffset=0mm|HoleType=Round|Shape=RoundedRectangle|*
%AMROUNDEDRECTD49*
21,1,3.58,0.65,0,0,0.0*
21,1,2.85,1.38,0,0,0.0*
1,1,0.73,1.43,-0.33*
1,1,0.73,-1.43,-0.33*
1,1,0.73,-1.43,0.33*
1,1,0.73,1.43,0.33*
%
%ADD49ROUNDEDRECTD49*%
G04:AMPARAMS|DCode=50|XSize=3.58mm|YSize=1.38mm|CornerRadius=0.36mm|HoleSize=0mm|Usage=FLASHONLY|Rotation=270.000|XOffset=0mm|YOffset=0mm|HoleType=Round|Shape=RoundedRectangle|*
%AMROUNDEDRECTD50*
21,1,3.58,0.65,0,0,270.0*
21,1,2.85,1.38,0,0,270.0*
1,1,0.73,-0.33,-1.43*
1,1,0.73,-0.33,1.43*
1,1,0.73,0.33,1.43*
1,1,0.73,0.33,-1.43*
%
%ADD50ROUNDEDRECTD50*%
G04:AMPARAMS|DCode=51|XSize=4.08mm|YSize=1.38mm|CornerRadius=0.36mm|HoleSize=0mm|Usage=FLASHONLY|Rotation=270.000|XOffset=0mm|YOffset=0mm|HoleType=Round|Shape=RoundedRectangle|*
%AMROUNDEDRECTD51*
21,1,4.08,0.65,0,0,270.0*
21,1,3.35,1.38,0,0,270.0*
1,1,0.73,-0.33,-1.68*
1,1,0.73,-0.33,1.68*
1,1,0.73,0.33,1.68*
1,1,0.73,0.33,-1.68*
%
%ADD51ROUNDEDRECTD51*%
%ADD52R,1.38X1.38*%
%ADD53C,1.38*%
%ADD54R,1.20X1.20*%
G04:AMPARAMS|DCode=55|XSize=1.68mm|YSize=1.68mm|CornerRadius=0.44mm|HoleSize=0mm|Usage=FLASHONLY|Rotation=0.000|XOffset=0mm|YOffset=0mm|HoleType=Round|Shape=RoundedRectangle|*
%AMROUNDEDRECTD55*
21,1,1.68,0.80,0,0,0.0*
21,1,0.80,1.68,0,0,0.0*
1,1,0.88,0.40,-0.40*
1,1,0.88,-0.40,-0.40*
1,1,0.88,-0.40,0.40*
1,1,0.88,0.40,0.40*
%
%ADD55ROUNDEDRECTD55*%
%ADD56C,2.03*%
%ADD57R,2.03X2.03*%
%ADD58C,2.33*%
%ADD59R,1.58X1.58*%
%ADD60R,1.13X1.13*%
%ADD61C,1.13*%
%ADD62C,1.35*%
G36*
X18785Y1615D02*
X18792Y1608D01*
X18796Y1599D01*
Y1594D01*
Y1467D01*
X18618D01*
Y1594D01*
Y1599D01*
X18622Y1608D01*
X18629Y1615D01*
X18638Y1619D01*
X18776D01*
X18785Y1615D01*
D02*
G37*
G36*
X19039D02*
X19046Y1608D01*
X19050Y1599D01*
Y1594D01*
Y1467D01*
X18872D01*
Y1594D01*
Y1599D01*
X18876Y1608D01*
X18883Y1615D01*
X18892Y1619D01*
X19030D01*
X19039Y1615D01*
D02*
G37*
G36*
X18796Y2445D02*
Y2440D01*
X18792Y2431D01*
X18785Y2424D01*
X18776Y2420D01*
X18638D01*
X18629Y2424D01*
X18622Y2431D01*
X18618Y2440D01*
Y2445D01*
Y2572D01*
X18796D01*
Y2445D01*
D02*
G37*
G36*
X19050D02*
Y2440D01*
X19046Y2431D01*
X19039Y2424D01*
X19030Y2420D01*
X18892D01*
X18883Y2424D01*
X18876Y2431D01*
X18872Y2440D01*
Y2445D01*
Y2572D01*
X19050D01*
Y2445D01*
D02*
G37*
D20*
X18961Y2496D02*
D03*
X18707D02*
D03*
Y1543D02*
D03*
X18961D02*
D03*
D21*
X18238Y8462D02*
D03*
Y8792D02*
D03*
Y8682D02*
D03*
Y8572D02*
D03*
Y8352D02*
D03*
Y8242D02*
D03*
Y8132D02*
D03*
Y8022D02*
D03*
Y7912D02*
D03*
D22*
X12852Y7137D02*
D03*
X13106D02*
D03*
X13360D02*
D03*
X13614D02*
D03*
X13868D02*
D03*
X14122D02*
D03*
X14376D02*
D03*
X14630D02*
D03*
Y6227D02*
D03*
X14376D02*
D03*
X14122D02*
D03*
X13868D02*
D03*
X13614D02*
D03*
X13360D02*
D03*
X13106D02*
D03*
X12852D02*
D03*
X10465Y7150D02*
D03*
X10719D02*
D03*
X10973D02*
D03*
X11227D02*
D03*
X11481D02*
D03*
X11735D02*
D03*
X11989D02*
D03*
X12243D02*
D03*
Y6240D02*
D03*
X11989D02*
D03*
X11735D02*
D03*
X11481D02*
D03*
X11227D02*
D03*
X10973D02*
D03*
X10719D02*
D03*
X10465D02*
D03*
D23*
X18438Y7774D02*
D03*
X19338D02*
D03*
Y9389D02*
D03*
X18438D02*
D03*
D24*
X11780Y5436D02*
D03*
Y5309D02*
D03*
Y5182D02*
D03*
Y5055D02*
D03*
Y4928D02*
D03*
Y4801D02*
D03*
Y4674D02*
D03*
X12325D02*
D03*
Y4801D02*
D03*
Y4928D02*
D03*
Y5055D02*
D03*
Y5182D02*
D03*
Y5309D02*
D03*
Y5436D02*
D03*
D25*
X14433Y787D02*
D03*
X15387D02*
D03*
Y597D02*
D03*
X14433D02*
D03*
X15576Y622D02*
D03*
X16530D02*
D03*
Y826D02*
D03*
X15576D02*
D03*
D26*
X15875Y2832D02*
D03*
X15367Y2705D02*
D03*
X15875Y2578D02*
D03*
X15367Y2451D02*
D03*
X15875Y2324D02*
D03*
X15367Y2197D02*
D03*
X15875Y2070D02*
D03*
X15367Y1943D02*
D03*
X15875Y1816D02*
D03*
X15367Y1689D02*
D03*
X15875Y1562D02*
D03*
X15367Y1435D02*
D03*
X15875Y1308D02*
D03*
X15367Y1181D02*
D03*
X4902Y293D02*
D03*
X829Y182D02*
D03*
X7961Y295D02*
D03*
X5890D02*
D03*
X1968Y293D02*
D03*
X2908D02*
D03*
X6969Y305D02*
D03*
X3886Y293D02*
D03*
X15696Y293D02*
D03*
X16256Y6261D02*
D03*
Y6515D02*
D03*
D27*
X15875Y1054D02*
D03*
X4702Y293D02*
D03*
X1029Y182D02*
D03*
X7761Y295D02*
D03*
X5690D02*
D03*
X1768Y293D02*
D03*
X2708D02*
D03*
X6769Y305D02*
D03*
X3686Y293D02*
D03*
X15496Y293D02*
D03*
D28*
X19449Y3518D02*
D03*
X16459D02*
D03*
D29*
X3274Y9309D02*
D03*
X3528Y9055D02*
D03*
Y9309D02*
D03*
X4036D02*
D03*
X4798Y9055D02*
D03*
X5052D02*
D03*
X5306D02*
D03*
X5560D02*
D03*
Y9309D02*
D03*
X5306D02*
D03*
X5052D02*
D03*
X4798D02*
D03*
X4544D02*
D03*
Y9055D02*
D03*
X4290Y9309D02*
D03*
Y9055D02*
D03*
X4036D02*
D03*
X3782Y9309D02*
D03*
Y9055D02*
D03*
D30*
X4697Y4724D02*
D03*
X4951D02*
D03*
X5205D02*
D03*
X5459Y4470D02*
D03*
Y4724D02*
D03*
X5713Y4470D02*
D03*
X4189Y4724D02*
D03*
X4443Y4470D02*
D03*
Y4724D02*
D03*
X4697Y4470D02*
D03*
X4951D02*
D03*
X5205D02*
D03*
X5713Y4724D02*
D03*
X5967Y4470D02*
D03*
Y4724D02*
D03*
D31*
X9778Y4483D02*
D03*
X9524Y4737D02*
D03*
Y4483D02*
D03*
X9270D02*
D03*
X9016Y4737D02*
D03*
Y4483D02*
D03*
X8762Y4737D02*
D03*
Y4483D02*
D03*
X8508Y4737D02*
D03*
Y4483D02*
D03*
X8254Y4737D02*
D03*
X7746D02*
D03*
X7492D02*
D03*
Y4483D02*
D03*
X7238Y4737D02*
D03*
Y4483D02*
D03*
X6984Y4737D02*
D03*
X6476Y4483D02*
D03*
X6222Y9055D02*
D03*
X6476D02*
D03*
X7238D02*
D03*
X7492D02*
D03*
X8000D02*
D03*
X8508Y9309D02*
D03*
X9016Y9055D02*
D03*
X9270D02*
D03*
X9524D02*
D03*
X10032D02*
D03*
X6730Y4483D02*
D03*
X6984D02*
D03*
X7746D02*
D03*
X8000D02*
D03*
X8254D02*
D03*
X10032D02*
D03*
X6476Y4737D02*
D03*
X6730D02*
D03*
X8000D02*
D03*
X9270D02*
D03*
X9778D02*
D03*
X7492Y9309D02*
D03*
X5968D02*
D03*
X6222D02*
D03*
X6476D02*
D03*
X6730Y9055D02*
D03*
Y9309D02*
D03*
X6984Y9055D02*
D03*
Y9309D02*
D03*
X7238D02*
D03*
X7746Y9055D02*
D03*
Y9309D02*
D03*
X8000D02*
D03*
X8254Y9055D02*
D03*
Y9309D02*
D03*
X8508Y9055D02*
D03*
X8762D02*
D03*
Y9309D02*
D03*
X9016D02*
D03*
X9270D02*
D03*
X9524D02*
D03*
X9778Y9055D02*
D03*
Y9309D02*
D03*
X10032D02*
D03*
D32*
X5968Y9055D02*
D03*
X10032Y4737D02*
D03*
D33*
X13081Y3917D02*
D03*
X15367Y8159D02*
D03*
X17900Y5359D02*
D03*
X4401Y7137D02*
D03*
Y8115D02*
D03*
Y7518D02*
D03*
Y6718D02*
D03*
X13952Y7480D02*
D03*
X12778Y7468D02*
D03*
X2210Y8478D02*
D03*
X2667D02*
D03*
X4006Y1889D02*
D03*
X5149D02*
D03*
X1720D02*
D03*
X2863D02*
D03*
X7448D02*
D03*
X1334Y3904D02*
D03*
X16020Y3924D02*
D03*
X16300Y5410D02*
D03*
X7614Y3543D02*
D03*
X8135Y3988D02*
D03*
X952Y3904D02*
D03*
X1720Y1228D02*
D03*
X4006D02*
D03*
X2863D02*
D03*
X5149D02*
D03*
X6305D02*
D03*
Y1889D02*
D03*
X8018Y7518D02*
D03*
X8918Y6833D02*
D03*
X7880Y6045D02*
D03*
X6941Y5474D02*
D03*
X4597Y3119D02*
D03*
X3693Y4630D02*
D03*
X3108D02*
D03*
X2524D02*
D03*
X1940D02*
D03*
X16987Y8649D02*
D03*
X3365Y4057D02*
D03*
X17805Y5994D02*
D03*
Y6248D02*
D03*
Y6502D02*
D03*
X14224Y5492D02*
D03*
X13183Y5479D02*
D03*
X12789Y5492D02*
D03*
X10465Y5479D02*
D03*
X11354D02*
D03*
X10871D02*
D03*
X16020Y3188D02*
D03*
X7448Y1228D02*
D03*
X12471Y8998D02*
D03*
X11887D02*
D03*
X11303D02*
D03*
X10795Y8997D02*
D03*
X14503Y8984D02*
D03*
X14021Y8959D02*
D03*
X13500Y8984D02*
D03*
X12992Y9010D02*
D03*
X13652Y5479D02*
D03*
X14796D02*
D03*
D34*
X13458Y7760D02*
D03*
X3700Y3975D02*
D03*
X8315Y3124D02*
D03*
X7248Y2524D02*
D03*
X1388Y9322D02*
D03*
X1020Y2524D02*
D03*
X2163D02*
D03*
X3806D02*
D03*
X6105D02*
D03*
X4949D02*
D03*
X8218Y8153D02*
D03*
X7154Y6591D02*
D03*
X17031Y5982D02*
D03*
X18732Y7328D02*
D03*
X17179Y1448D02*
D03*
X17497Y3924D02*
D03*
D35*
X12958Y7760D02*
D03*
X4200Y3975D02*
D03*
X7814Y3124D02*
D03*
X6748Y2524D02*
D03*
X1888Y9322D02*
D03*
X1520Y2524D02*
D03*
X2663D02*
D03*
X3306D02*
D03*
X5605D02*
D03*
X4449D02*
D03*
X8718Y8153D02*
D03*
X7654Y6591D02*
D03*
X16679Y1448D02*
D03*
X16997Y3924D02*
D03*
D36*
X4189Y4470D02*
D03*
D37*
X17000Y5359D02*
D03*
X5301Y7137D02*
D03*
Y8115D02*
D03*
Y7518D02*
D03*
Y6718D02*
D03*
X14852Y7480D02*
D03*
X13678Y7468D02*
D03*
X3106Y1889D02*
D03*
X4249D02*
D03*
X820D02*
D03*
X1963D02*
D03*
X6548D02*
D03*
X15120Y3924D02*
D03*
X15400Y5410D02*
D03*
X8515Y3543D02*
D03*
X9035Y3988D02*
D03*
X820Y1228D02*
D03*
X3106D02*
D03*
X1963D02*
D03*
X4249D02*
D03*
X5405D02*
D03*
Y1889D02*
D03*
X8918Y7518D02*
D03*
X8018Y6833D02*
D03*
X6979Y6045D02*
D03*
X7841Y5474D02*
D03*
X17887Y8649D02*
D03*
X15120Y3188D02*
D03*
X6548Y1228D02*
D03*
D38*
X16802Y1892D02*
D03*
X16929Y2042D02*
D03*
X17056Y1892D02*
D03*
X16853Y2896D02*
D03*
X16980Y3046D02*
D03*
X17107Y2896D02*
D03*
X13767Y3378D02*
D03*
X9614Y3099D02*
D03*
X9055Y3365D02*
D03*
X11367Y3454D02*
D03*
X14376Y3137D02*
D03*
X11951Y3188D02*
D03*
D39*
X19380Y8242D02*
D03*
Y8902D02*
D03*
D40*
X18562Y4788D02*
D03*
X17932Y8255D02*
D03*
D41*
X15888Y4788D02*
D03*
X15959Y8255D02*
D03*
D42*
X9436Y2156D02*
D03*
X13987Y250D02*
D03*
X13737D02*
D03*
X13487D02*
D03*
X9461D02*
D03*
X9211D02*
D03*
X8962D02*
D03*
X14110Y2182D02*
D03*
X11786D02*
D03*
X11256Y250D02*
D03*
X11506D02*
D03*
X11756D02*
D03*
D43*
X9436Y1806D02*
D03*
X14110Y1832D02*
D03*
X11786D02*
D03*
D44*
X14237Y250D02*
D03*
X9712D02*
D03*
X12006D02*
D03*
D45*
X2210Y9378D02*
D03*
X2667D02*
D03*
X1334Y3004D02*
D03*
X952D02*
D03*
X4597Y4019D02*
D03*
X3693Y5530D02*
D03*
X3108D02*
D03*
X2524D02*
D03*
X1940D02*
D03*
X3365Y3157D02*
D03*
X14224Y4592D02*
D03*
X13081Y3017D02*
D03*
X13183Y4579D02*
D03*
X12789Y4592D02*
D03*
X10465Y4579D02*
D03*
X11354D02*
D03*
X10871D02*
D03*
X15367Y7259D02*
D03*
X12471Y8098D02*
D03*
X11887D02*
D03*
X11303D02*
D03*
X10795Y8097D02*
D03*
X14503Y8084D02*
D03*
X14021Y8059D02*
D03*
X13500Y8084D02*
D03*
X12992Y8110D02*
D03*
X13652Y4579D02*
D03*
X14796D02*
D03*
D46*
X17755Y2464D02*
D03*
X16105D02*
D03*
D47*
X3274Y9055D02*
D03*
D48*
X13767Y3124D02*
D03*
X9055Y3111D02*
D03*
X11367Y3200D02*
D03*
D49*
X18712Y6922D02*
D03*
D50*
X19012Y6452D02*
D03*
D51*
X18392D02*
D03*
D52*
X17018Y6531D02*
D03*
D53*
Y6731D02*
D03*
D54*
X17031Y5782D02*
D03*
X18732Y7528D02*
D03*
D55*
X9360Y3099D02*
D03*
X14122Y3137D02*
D03*
X11697Y3188D02*
D03*
D56*
X10160Y2654D02*
D03*
X10414D02*
D03*
X10668D02*
D03*
X10922D02*
D03*
X11176D02*
D03*
X11430D02*
D03*
X11684D02*
D03*
X7798Y2680D02*
D03*
X8052D02*
D03*
X8306D02*
D03*
X8560D02*
D03*
X8814D02*
D03*
X9068D02*
D03*
X9322D02*
D03*
X7798Y1245D02*
D03*
X8052D02*
D03*
X8306D02*
D03*
X8560D02*
D03*
X8814D02*
D03*
X9068D02*
D03*
X9322D02*
D03*
X12992Y1257D02*
D03*
X10173Y1232D02*
D03*
X10427D02*
D03*
X10681D02*
D03*
X10935D02*
D03*
X11189D02*
D03*
X11443D02*
D03*
X11697D02*
D03*
X14021Y2667D02*
D03*
X13767D02*
D03*
X13513D02*
D03*
X13259D02*
D03*
X13005D02*
D03*
X12751D02*
D03*
X12497D02*
D03*
X14008Y1257D02*
D03*
X13754D02*
D03*
X13500D02*
D03*
X13246D02*
D03*
X12738D02*
D03*
X12484D02*
D03*
D57*
X11938Y2654D02*
D03*
X9576Y2680D02*
D03*
Y1245D02*
D03*
X11951Y1232D02*
D03*
X14275Y2667D02*
D03*
X14262Y1257D02*
D03*
D58*
X18745Y558D02*
D03*
X18237D02*
D03*
X16916Y558D02*
D03*
X17424D02*
D03*
D59*
X16256Y6007D02*
D03*
D60*
X15240Y6464D02*
D03*
D61*
Y6264D02*
D03*
D62*
X17757Y8462D02*
D03*
X11786Y4508D02*
D03*
X12134Y4731D02*
D03*
X11576Y5048D02*
D03*
X12129Y5232D02*
D03*
X12143Y5081D02*
D03*
X11989Y4928D02*
D03*
X11980Y5429D02*
D03*
X12306Y5639D02*
D03*
X12535Y5194D02*
D03*
X6515Y7709D02*
D03*
X6134Y8090D02*
D03*
X6007Y7175D02*
D03*
X11735Y6896D02*
D03*
X11227Y6883D02*
D03*
X11989Y6464D02*
D03*
X13106Y6794D02*
D03*
X1676Y8141D02*
D03*
X2502Y7252D02*
D03*
X8801Y3340D02*
D03*
X18479Y8026D02*
D03*
Y8217D02*
D03*
X18009Y8826D02*
D03*
X12535Y4585D02*
D03*
X13056Y5982D02*
D03*
X18034Y8052D02*
D03*
X11163Y5906D02*
D03*
X14122Y5994D02*
D03*
X6629Y5512D02*
D03*
X3785Y5144D02*
D03*
X2883Y6515D02*
D03*
X4940Y9728D02*
D03*
X16515Y9550D02*
D03*
X9957Y5050D02*
D03*
X9657Y8547D02*
D03*
X4432Y9545D02*
D03*
X9505Y5006D02*
D03*
X14501Y6683D02*
D03*
X11582Y5900D02*
D03*
X10780Y5131D02*
D03*
X9274Y7315D02*
D03*
X9014Y6162D02*
D03*
X9715Y2390D02*
D03*
X13185Y3195D02*
D03*
X6657Y3800D02*
D03*
X9368Y2451D02*
D03*
X6388Y8202D02*
D03*
X4244Y2888D02*
D03*
X6226Y5362D02*
D03*
X6906Y3706D02*
D03*
X10498Y5019D02*
D03*
X10719Y6868D02*
D03*
X14399Y5769D02*
D03*
X13614D02*
D03*
X5954Y2047D02*
D03*
X10668Y4473D02*
D03*
X10450Y2916D02*
D03*
X5042Y8331D02*
D03*
X7447Y5189D02*
D03*
X6043Y6111D02*
D03*
X8352Y7838D02*
D03*
X12555Y5436D02*
D03*
X8184Y7747D02*
D03*
X10160Y5771D02*
D03*
X6007Y7648D02*
D03*
X6828D02*
D03*
X8923Y8832D02*
D03*
X9855Y7137D02*
D03*
X7238Y4968D02*
D03*
X5375Y5880D02*
D03*
X4851Y6980D02*
D03*
X4674Y7544D02*
D03*
X18418Y2710D02*
D03*
X18979Y7774D02*
D03*
X11575Y4801D02*
D03*
M02*
