G04*
G04 #@! TF.GenerationSoftware,Altium Limited,Altium Designer,24.2.2 (26)*
G04*
G04 Layer_Color=32896*
%FSLAX42Y42*%
%MOMM*%
G71*
G04*
G04 #@! TF.SameCoordinates,1B85D7C3-CB2C-498D-ACBB-91D5DC165851*
G04*
G04*
G04 #@! TF.FilePolarity,Positive*
G04*
G01*
G75*
%ADD12C,0.20*%
%ADD14C,0.25*%
D12*
X5500Y5744D02*
G03*
X5490Y5744I-5J0D01*
G01*
D02*
G03*
X5500Y5744I5J0D01*
G01*
D02*
G03*
X5490Y5744I-5J0D01*
G01*
X14239Y6219D02*
G03*
X14249Y6219I5J0D01*
G01*
D02*
G03*
X14239Y6219I-5J0D01*
G01*
D02*
G03*
X14249Y6219I5J0D01*
G01*
X9250Y7694D02*
G03*
X9240Y7694I-5J0D01*
G01*
D02*
G03*
X9250Y7694I5J0D01*
G01*
D02*
G03*
X9240Y7694I-5J0D01*
G01*
X9250Y3791D02*
G03*
X9240Y3791I-5J0D01*
G01*
D02*
G03*
X9250Y3791I5J0D01*
G01*
D02*
G03*
X9240Y3791I-5J0D01*
G01*
X1750Y7694D02*
G03*
X1740Y7694I-5J0D01*
G01*
D02*
G03*
X1750Y7694I5J0D01*
G01*
D02*
G03*
X1740Y7694I-5J0D01*
G01*
X1750Y3791D02*
G03*
X1740Y3791I-5J0D01*
G01*
D02*
G03*
X1750Y3791I5J0D01*
G01*
D02*
G03*
X1740Y3791I-5J0D01*
G01*
X16750Y4233D02*
G03*
X16740Y4233I-5J0D01*
G01*
D02*
G03*
X16750Y4233I5J0D01*
G01*
D02*
G03*
X16740Y4233I-5J0D01*
G01*
X16750Y7306D02*
G03*
X16740Y7306I-5J0D01*
G01*
D02*
G03*
X16750Y7306I5J0D01*
G01*
D02*
G03*
X16740Y7306I-5J0D01*
G01*
X14677Y714D02*
X15142D01*
Y479D02*
Y714D01*
X14677Y479D02*
X15142D01*
X14677D02*
Y714D01*
X14550Y597D02*
X14677D01*
X15142D02*
X15269D01*
X15015Y479D02*
Y714D01*
X15820Y943D02*
X16285D01*
Y708D02*
Y943D01*
X15820Y708D02*
X16285D01*
X15820D02*
Y943D01*
X15693Y826D02*
X15820D01*
X16285D02*
X16412D01*
X16158Y708D02*
Y943D01*
X5464Y6299D02*
X6785D01*
X5464Y5639D02*
Y5802D01*
X6785Y5639D02*
Y6299D01*
X5464Y5958D02*
Y5966D01*
Y6122D02*
Y6299D01*
Y5639D02*
X6785D01*
X5464Y5966D02*
Y6122D01*
Y5802D02*
Y5958D01*
X12954Y5664D02*
X14275D01*
Y6161D02*
Y6325D01*
X12954Y5664D02*
Y6325D01*
X14275Y5998D02*
Y6005D01*
Y5664D02*
Y5842D01*
X12954Y6325D02*
X14275D01*
Y5842D02*
Y5998D01*
Y6005D02*
Y6161D01*
X9214Y8249D02*
X10535D01*
X9214Y7589D02*
Y7752D01*
X10535Y7589D02*
Y8249D01*
X9214Y7908D02*
Y7916D01*
Y8071D02*
Y8249D01*
Y7589D02*
X10535D01*
X9214Y7916D02*
Y8071D01*
Y7752D02*
Y7908D01*
X9214Y4346D02*
X10535D01*
X9214Y3686D02*
Y3849D01*
X10535Y3686D02*
Y4346D01*
X9214Y4005D02*
Y4012D01*
Y4168D02*
Y4346D01*
Y3686D02*
X10535D01*
X9214Y4012D02*
Y4168D01*
Y3849D02*
Y4005D01*
X1714Y8249D02*
X3035D01*
X1714Y7589D02*
Y7752D01*
X3035Y7589D02*
Y8249D01*
X1714Y7908D02*
Y7916D01*
Y8071D02*
Y8249D01*
Y7589D02*
X3035D01*
X1714Y7916D02*
Y8071D01*
Y7752D02*
Y7908D01*
Y4346D02*
X3035D01*
X1714Y3686D02*
Y3849D01*
X3035Y3686D02*
Y4346D01*
X1714Y4005D02*
Y4012D01*
Y4168D02*
Y4346D01*
Y3686D02*
X3035D01*
X1714Y4012D02*
Y4168D01*
Y3849D02*
Y4005D01*
X13008Y7630D02*
Y7662D01*
Y7857D02*
Y7890D01*
X13408D01*
Y7630D02*
Y7662D01*
Y7857D02*
Y7890D01*
X13008Y7630D02*
X13408D01*
X17765Y5239D02*
Y5479D01*
X17135D02*
X17765D01*
X17135Y5239D02*
X17765D01*
X17135D02*
Y5479D01*
X4536Y7017D02*
Y7257D01*
Y7017D02*
X5166D01*
X4536Y7257D02*
X5166D01*
Y7017D02*
Y7257D01*
X4536Y7995D02*
Y8235D01*
Y7995D02*
X5166D01*
X4536Y8235D02*
X5166D01*
Y7995D02*
Y8235D01*
X4536Y7398D02*
Y7638D01*
Y7398D02*
X5166D01*
X4536Y7638D02*
X5166D01*
Y7398D02*
Y7638D01*
X4536Y6598D02*
Y6838D01*
Y6598D02*
X5166D01*
X4536Y6838D02*
X5166D01*
Y6598D02*
Y6838D01*
X16715Y4291D02*
Y4447D01*
Y4454D02*
Y4610D01*
Y4128D02*
X18035D01*
X16715Y4610D02*
Y4788D01*
Y4447D02*
Y4454D01*
X18035Y4128D02*
Y4788D01*
X16715Y4128D02*
Y4291D01*
Y4788D02*
X18035D01*
X16715Y7364D02*
Y7520D01*
Y7528D02*
Y7683D01*
Y7201D02*
X18035D01*
X16715Y7683D02*
Y7861D01*
Y7520D02*
Y7528D01*
X18035Y7201D02*
Y7861D01*
X16715Y7201D02*
Y7364D01*
Y7861D02*
X18035D01*
X14087Y7360D02*
Y7600D01*
Y7360D02*
X14717D01*
X14087Y7600D02*
X14717D01*
Y7360D02*
Y7600D01*
X12913Y7348D02*
Y7588D01*
Y7348D02*
X13543D01*
X12913Y7588D02*
X13543D01*
Y7348D02*
Y7588D01*
X4150Y4073D02*
Y4105D01*
Y3845D02*
Y3878D01*
X3750Y3845D02*
X4150D01*
X3750Y4073D02*
Y4105D01*
Y3845D02*
Y3878D01*
Y4105D02*
X4150D01*
X7864Y2994D02*
Y3027D01*
Y3222D02*
Y3254D01*
X8264D01*
Y2994D02*
Y3027D01*
Y3222D02*
Y3254D01*
X7864Y2994D02*
X8264D01*
X1838Y9419D02*
Y9452D01*
Y9192D02*
Y9224D01*
X1438Y9192D02*
X1838D01*
X1438Y9419D02*
Y9452D01*
Y9192D02*
Y9224D01*
Y9452D02*
X1838D01*
X2090Y8613D02*
X2330D01*
Y9243D01*
X2090Y8613D02*
Y9243D01*
X2330D01*
X2547Y8613D02*
X2787D01*
Y9243D01*
X2547Y8613D02*
Y9243D01*
X2787D01*
X7749Y3423D02*
Y3663D01*
Y3423D02*
X8380D01*
X7749Y3663D02*
X8380D01*
Y3423D02*
Y3663D01*
X8270Y3868D02*
Y4108D01*
Y3868D02*
X8900D01*
X8270Y4108D02*
X8900D01*
Y3868D02*
Y4108D01*
X5829Y7473D02*
Y7793D01*
Y7473D02*
X6694D01*
Y7793D01*
X5829D02*
X6694D01*
X5810Y7828D02*
Y7983D01*
X8668Y8251D02*
Y8283D01*
Y8023D02*
Y8056D01*
X8268Y8023D02*
X8668D01*
X8268Y8251D02*
Y8283D01*
Y8023D02*
Y8056D01*
Y8283D02*
X8668D01*
X8153Y7398D02*
Y7638D01*
Y7398D02*
X8783D01*
X8153Y7638D02*
X8783D01*
Y7398D02*
Y7638D01*
Y6713D02*
Y6953D01*
X8153D02*
X8783D01*
X8153Y6713D02*
X8783D01*
X8153D02*
Y6953D01*
X7745Y5925D02*
Y6165D01*
X7114D02*
X7745D01*
X7114Y5925D02*
X7745D01*
X7114D02*
Y6165D01*
X7076Y5354D02*
Y5594D01*
Y5354D02*
X7706D01*
X7076Y5594D02*
X7706D01*
Y5354D02*
Y5594D01*
X4477Y3254D02*
X4717D01*
Y3884D01*
X4477Y3254D02*
Y3884D01*
X4717D01*
X3573Y4765D02*
X3813D01*
Y5395D01*
X3573Y4765D02*
Y5395D01*
X3813D01*
X2988Y4765D02*
X3228D01*
Y5395D01*
X2988Y4765D02*
Y5395D01*
X3228D01*
X2404Y4765D02*
X2644D01*
Y5395D01*
X2404Y4765D02*
Y5395D01*
X2644D01*
X1820Y4765D02*
X2060D01*
Y5395D01*
X1820Y4765D02*
Y5395D01*
X2060D01*
X17122Y8529D02*
Y8769D01*
Y8529D02*
X17752D01*
X17122Y8769D02*
X17752D01*
Y8529D02*
Y8769D01*
X7604Y6689D02*
Y6721D01*
Y6461D02*
Y6494D01*
X7204Y6461D02*
X7604D01*
X7204Y6689D02*
Y6721D01*
Y6461D02*
Y6494D01*
Y6721D02*
X7604D01*
X3246Y3922D02*
X3485D01*
X3246Y3292D02*
Y3922D01*
X3485Y3292D02*
Y3922D01*
X3246Y3292D02*
X3485D01*
X1886Y6916D02*
Y7126D01*
X1891Y6881D02*
X3875D01*
Y6251D02*
Y6881D01*
X1891Y6251D02*
X3875D01*
X1891D02*
Y6881D01*
D14*
X14961Y673D02*
Y521D01*
X14884D01*
X14859Y546D01*
Y648D01*
X14884Y673D01*
X14961D01*
X14808Y521D02*
X14757D01*
X14783D01*
Y673D01*
X14808Y648D01*
X16081Y880D02*
Y771D01*
X16026D01*
X16008Y789D01*
Y862D01*
X16026Y880D01*
X16081D01*
X15916Y771D02*
Y880D01*
X15971Y826D01*
X15898D01*
X6734Y6652D02*
X6784D01*
X6759D01*
Y6525D01*
X6784Y6500D01*
X6810D01*
X6835Y6525D01*
X6657Y6500D02*
X6607D01*
X6581Y6525D01*
Y6576D01*
X6607Y6601D01*
X6657D01*
X6683Y6576D01*
Y6525D01*
X6657Y6500D01*
X6480Y6449D02*
X6454D01*
X6429Y6474D01*
Y6601D01*
X6505D01*
X6530Y6576D01*
Y6525D01*
X6505Y6500D01*
X6429D01*
X6226Y6652D02*
X6124Y6500D01*
Y6652D02*
X6226Y6500D01*
X6073Y6576D02*
X5972D01*
X14173Y6678D02*
X14224D01*
X14199D01*
Y6551D01*
X14224Y6525D01*
X14249D01*
X14275Y6551D01*
X14097Y6525D02*
X14046D01*
X14021Y6551D01*
Y6601D01*
X14046Y6627D01*
X14097D01*
X14122Y6601D01*
Y6551D01*
X14097Y6525D01*
X13919Y6474D02*
X13894D01*
X13869Y6500D01*
Y6627D01*
X13945D01*
X13970Y6601D01*
Y6551D01*
X13945Y6525D01*
X13869D01*
X13665Y6678D02*
X13564Y6525D01*
Y6678D02*
X13665Y6525D01*
X13513Y6601D02*
X13411D01*
X13462Y6652D02*
Y6551D01*
X10483Y8603D02*
X10533D01*
X10508D01*
Y8476D01*
X10533Y8451D01*
X10559D01*
X10584Y8476D01*
X10406Y8451D02*
X10356D01*
X10330Y8476D01*
Y8527D01*
X10356Y8552D01*
X10406D01*
X10432Y8527D01*
Y8476D01*
X10406Y8451D01*
X10229Y8400D02*
X10203D01*
X10178Y8425D01*
Y8552D01*
X10254D01*
X10279Y8527D01*
Y8476D01*
X10254Y8451D01*
X10178D01*
X9975Y8603D02*
Y8578D01*
X9924Y8527D01*
X9873Y8578D01*
Y8603D01*
X9924Y8527D02*
Y8451D01*
X9822Y8527D02*
X9721D01*
X10153Y4106D02*
X10193D01*
X10173D01*
Y4006D01*
X10193Y3986D01*
X10213D01*
X10233Y4006D01*
X10093Y3986D02*
X10053D01*
X10033Y4006D01*
Y4046D01*
X10053Y4066D01*
X10093D01*
X10113Y4046D01*
Y4006D01*
X10093Y3986D01*
X9953Y3946D02*
X9933D01*
X9913Y3966D01*
Y4066D01*
X9973D01*
X9993Y4046D01*
Y4006D01*
X9973Y3986D01*
X9913D01*
X9753Y4106D02*
Y4086D01*
X9713Y4046D01*
X9673Y4086D01*
Y4106D01*
X9713Y4046D02*
Y3986D01*
X9633Y4046D02*
X9553D01*
X9593Y4086D02*
Y4006D01*
X2624Y7976D02*
X2662D01*
X2643D01*
Y7880D01*
X2662Y7861D01*
X2681D01*
X2701Y7880D01*
X2567Y7861D02*
X2528D01*
X2509Y7880D01*
Y7919D01*
X2528Y7938D01*
X2567D01*
X2586Y7919D01*
Y7880D01*
X2567Y7861D01*
X2432Y7823D02*
X2413D01*
X2394Y7842D01*
Y7938D01*
X2452D01*
X2471Y7919D01*
Y7880D01*
X2452Y7861D01*
X2394D01*
X2241Y7976D02*
X2164D01*
Y7957D01*
X2241Y7880D01*
Y7861D01*
X2164D01*
X2126Y7919D02*
X2049D01*
X2637Y4090D02*
X2675D01*
X2656D01*
Y3994D01*
X2675Y3975D01*
X2694D01*
X2713Y3994D01*
X2579Y3975D02*
X2541D01*
X2522Y3994D01*
Y4032D01*
X2541Y4052D01*
X2579D01*
X2598Y4032D01*
Y3994D01*
X2579Y3975D01*
X2445Y3937D02*
X2426D01*
X2407Y3956D01*
Y4052D01*
X2464D01*
X2483Y4032D01*
Y3994D01*
X2464Y3975D01*
X2407D01*
X2253Y4090D02*
X2177D01*
Y4071D01*
X2253Y3994D01*
Y3975D01*
X2177D01*
X2139Y4032D02*
X2062D01*
X2100Y4071D02*
Y3994D01*
X17259Y8191D02*
Y8039D01*
Y8115D01*
X17158D01*
Y8191D01*
Y8039D01*
X17081D02*
X17031D01*
X17005Y8065D01*
Y8115D01*
X17031Y8141D01*
X17081D01*
X17107Y8115D01*
Y8065D01*
X17081Y8039D01*
X16955D02*
X16904D01*
X16929D01*
Y8191D01*
X16955D01*
X16726D02*
Y8039D01*
X16802D01*
X16828Y8065D01*
Y8115D01*
X16802Y8141D01*
X16726D01*
X17500Y5093D02*
X17602D01*
Y4940D01*
X17500D01*
X17602Y5016D02*
X17551D01*
X17450D02*
X17348D01*
X17196Y5067D02*
X17221Y5093D01*
X17272D01*
X17297Y5067D01*
Y5042D01*
X17272Y5016D01*
X17221D01*
X17196Y4991D01*
Y4966D01*
X17221Y4940D01*
X17272D01*
X17297Y4966D01*
X17120Y5067D02*
Y5042D01*
X17145D01*
X17094D01*
X17120D01*
Y4966D01*
X17094Y4940D01*
X16993D02*
X16942D01*
X16916Y4966D01*
Y5016D01*
X16942Y5042D01*
X16993D01*
X17018Y5016D01*
Y4966D01*
X16993Y4940D01*
X16866Y4890D02*
Y5042D01*
X16790D01*
X16764Y5016D01*
Y4966D01*
X16790Y4940D01*
X16866D01*
X7270Y8265D02*
X7295Y8291D01*
X7346D01*
X7371Y8265D01*
Y8240D01*
X7346Y8214D01*
X7295D01*
X7270Y8189D01*
Y8164D01*
X7295Y8138D01*
X7346D01*
X7371Y8164D01*
X7117Y8240D02*
X7193D01*
X7219Y8214D01*
Y8164D01*
X7193Y8138D01*
X7117D01*
X7066Y8291D02*
Y8138D01*
Y8214D01*
X7041Y8240D01*
X6990D01*
X6965Y8214D01*
Y8138D01*
X6914D02*
Y8240D01*
X6889D01*
X6863Y8214D01*
Y8138D01*
Y8214D01*
X6838Y8240D01*
X6812Y8214D01*
Y8138D01*
X6762D02*
X6711D01*
X6736D01*
Y8240D01*
X6762D01*
X6609Y8265D02*
Y8240D01*
X6635D01*
X6584D01*
X6609D01*
Y8164D01*
X6584Y8138D01*
X6482Y8265D02*
Y8240D01*
X6508D01*
X6457D01*
X6482D01*
Y8164D01*
X6457Y8138D01*
X6127Y8291D02*
X6178D01*
X6152D01*
Y8164D01*
X6178Y8138D01*
X6203D01*
X6228Y8164D01*
X6051Y8138D02*
X6000D01*
X5975Y8164D01*
Y8214D01*
X6000Y8240D01*
X6051D01*
X6076Y8214D01*
Y8164D01*
X6051Y8138D01*
X5873Y8087D02*
X5848D01*
X5822Y8113D01*
Y8240D01*
X5898D01*
X5924Y8214D01*
Y8164D01*
X5898Y8138D01*
X5822D01*
X5018Y6656D02*
Y6781D01*
X4956D01*
X4935Y6760D01*
Y6718D01*
X4956Y6697D01*
X5018D01*
X4976D02*
X4935Y6656D01*
X4810Y6781D02*
X4893D01*
Y6718D01*
X4851Y6739D01*
X4831D01*
X4810Y6718D01*
Y6677D01*
X4831Y6656D01*
X4872D01*
X4893Y6677D01*
X4706Y6656D02*
Y6781D01*
X4768Y6718D01*
X4685D01*
X5073Y7456D02*
Y7581D01*
X5011D01*
X4990Y7560D01*
Y7518D01*
X5011Y7498D01*
X5073D01*
X5032D02*
X4990Y7456D01*
X4865Y7581D02*
X4948D01*
Y7518D01*
X4907Y7539D01*
X4886D01*
X4865Y7518D01*
Y7477D01*
X4886Y7456D01*
X4928D01*
X4948Y7477D01*
X4823Y7456D02*
X4782D01*
X4803D01*
Y7581D01*
X4823Y7560D01*
X5018Y7075D02*
Y7200D01*
X4956D01*
X4935Y7179D01*
Y7137D01*
X4956Y7117D01*
X5018D01*
X4976D02*
X4935Y7075D01*
X4831D02*
Y7200D01*
X4893Y7137D01*
X4810D01*
X4685Y7075D02*
X4768D01*
X4685Y7158D01*
Y7179D01*
X4706Y7200D01*
X4747D01*
X4768Y7179D01*
X4997Y8053D02*
Y8178D01*
X4935D01*
X4914Y8157D01*
Y8115D01*
X4935Y8094D01*
X4997D01*
X4956D02*
X4914Y8053D01*
X4810D02*
Y8178D01*
X4872Y8115D01*
X4789D01*
X4747Y8053D02*
X4706D01*
X4726D01*
Y8178D01*
X4747Y8157D01*
X3993Y5687D02*
Y5839D01*
X3917D01*
X3891Y5814D01*
Y5763D01*
X3917Y5738D01*
X3993D01*
X3942D02*
X3891Y5687D01*
X3764D02*
Y5839D01*
X3841Y5763D01*
X3739D01*
X3688Y5814D02*
X3663Y5839D01*
X3612D01*
X3587Y5814D01*
Y5712D01*
X3612Y5687D01*
X3663D01*
X3688Y5712D01*
Y5814D01*
X3409Y5687D02*
Y5839D01*
X3333D01*
X3307Y5814D01*
Y5763D01*
X3333Y5738D01*
X3409D01*
X3358D02*
X3307Y5687D01*
X3256Y5814D02*
X3231Y5839D01*
X3180D01*
X3155Y5814D01*
Y5789D01*
X3180Y5763D01*
X3206D01*
X3180D01*
X3155Y5738D01*
Y5712D01*
X3180Y5687D01*
X3231D01*
X3256Y5712D01*
X3104D02*
X3079Y5687D01*
X3028D01*
X3002Y5712D01*
Y5814D01*
X3028Y5839D01*
X3079D01*
X3104Y5814D01*
Y5789D01*
X3079Y5763D01*
X3002D01*
X2824Y5687D02*
Y5839D01*
X2748D01*
X2723Y5814D01*
Y5763D01*
X2748Y5738D01*
X2824D01*
X2774D02*
X2723Y5687D01*
X2672Y5814D02*
X2647Y5839D01*
X2596D01*
X2571Y5814D01*
Y5789D01*
X2596Y5763D01*
X2621D01*
X2596D01*
X2571Y5738D01*
Y5712D01*
X2596Y5687D01*
X2647D01*
X2672Y5712D01*
X2520Y5814D02*
X2494Y5839D01*
X2444D01*
X2418Y5814D01*
Y5789D01*
X2444Y5763D01*
X2418Y5738D01*
Y5712D01*
X2444Y5687D01*
X2494D01*
X2520Y5712D01*
Y5738D01*
X2494Y5763D01*
X2520Y5789D01*
Y5814D01*
X2494Y5763D02*
X2444D01*
X2240Y5687D02*
Y5839D01*
X2164D01*
X2139Y5814D01*
Y5763D01*
X2164Y5738D01*
X2240D01*
X2189D02*
X2139Y5687D01*
X2088Y5814D02*
X2063Y5839D01*
X2012D01*
X1986Y5814D01*
Y5789D01*
X2012Y5763D01*
X2037D01*
X2012D01*
X1986Y5738D01*
Y5712D01*
X2012Y5687D01*
X2063D01*
X2088Y5712D01*
X1936Y5839D02*
X1834D01*
Y5814D01*
X1936Y5712D01*
Y5687D01*
X7965Y3752D02*
Y3904D01*
X7889D01*
X7864Y3879D01*
Y3828D01*
X7889Y3802D01*
X7965D01*
X7915D02*
X7864Y3752D01*
X7813Y3879D02*
X7788Y3904D01*
X7737D01*
X7712Y3879D01*
Y3853D01*
X7737Y3828D01*
X7762D01*
X7737D01*
X7712Y3802D01*
Y3777D01*
X7737Y3752D01*
X7788D01*
X7813Y3777D01*
X7559Y3904D02*
X7610Y3879D01*
X7661Y3828D01*
Y3777D01*
X7635Y3752D01*
X7585D01*
X7559Y3777D01*
Y3802D01*
X7585Y3828D01*
X7661D01*
X8486Y4196D02*
Y4348D01*
X8410D01*
X8385Y4323D01*
Y4272D01*
X8410Y4247D01*
X8486D01*
X8435D02*
X8385Y4196D01*
X8334Y4323D02*
X8308Y4348D01*
X8258D01*
X8232Y4323D01*
Y4298D01*
X8258Y4272D01*
X8283D01*
X8258D01*
X8232Y4247D01*
Y4221D01*
X8258Y4196D01*
X8308D01*
X8334Y4221D01*
X8080Y4348D02*
X8181D01*
Y4272D01*
X8131Y4298D01*
X8105D01*
X8080Y4272D01*
Y4221D01*
X8105Y4196D01*
X8156D01*
X8181Y4221D01*
X2510Y9535D02*
Y9688D01*
X2433D01*
X2408Y9662D01*
Y9611D01*
X2433Y9586D01*
X2510D01*
X2459D02*
X2408Y9535D01*
X2357Y9662D02*
X2332Y9688D01*
X2281D01*
X2256Y9662D01*
Y9637D01*
X2281Y9611D01*
X2306D01*
X2281D01*
X2256Y9586D01*
Y9561D01*
X2281Y9535D01*
X2332D01*
X2357Y9561D01*
X2129Y9535D02*
Y9688D01*
X2205Y9611D01*
X2103D01*
X2967Y9535D02*
Y9688D01*
X2891D01*
X2865Y9662D01*
Y9611D01*
X2891Y9586D01*
X2967D01*
X2916D02*
X2865Y9535D01*
X2814Y9662D02*
X2789Y9688D01*
X2738D01*
X2713Y9662D01*
Y9637D01*
X2738Y9611D01*
X2764D01*
X2738D01*
X2713Y9586D01*
Y9561D01*
X2738Y9535D01*
X2789D01*
X2814Y9561D01*
X2662Y9662D02*
X2637Y9688D01*
X2586D01*
X2560Y9662D01*
Y9637D01*
X2586Y9611D01*
X2611D01*
X2586D01*
X2560Y9586D01*
Y9561D01*
X2586Y9535D01*
X2637D01*
X2662Y9561D01*
X7330Y6253D02*
Y6406D01*
X7254D01*
X7229Y6380D01*
Y6330D01*
X7254Y6304D01*
X7330D01*
X7280D02*
X7229Y6253D01*
X7178Y6380D02*
X7153Y6406D01*
X7102D01*
X7077Y6380D01*
Y6355D01*
X7102Y6330D01*
X7127D01*
X7102D01*
X7077Y6304D01*
Y6279D01*
X7102Y6253D01*
X7153D01*
X7178Y6279D01*
X6924Y6253D02*
X7026D01*
X6924Y6355D01*
Y6380D01*
X6950Y6406D01*
X7000D01*
X7026Y6380D01*
X7242Y5682D02*
Y5834D01*
X7165D01*
X7140Y5809D01*
Y5758D01*
X7165Y5733D01*
X7242D01*
X7191D02*
X7140Y5682D01*
X7089Y5809D02*
X7064Y5834D01*
X7013D01*
X6988Y5809D01*
Y5784D01*
X7013Y5758D01*
X7038D01*
X7013D01*
X6988Y5733D01*
Y5707D01*
X7013Y5682D01*
X7064D01*
X7089Y5707D01*
X6937Y5682D02*
X6886D01*
X6911D01*
Y5834D01*
X6937Y5809D01*
X4897Y4176D02*
Y4328D01*
X4821D01*
X4796Y4303D01*
Y4252D01*
X4821Y4227D01*
X4897D01*
X4846D02*
X4796Y4176D01*
X4745Y4303D02*
X4719Y4328D01*
X4669D01*
X4643Y4303D01*
Y4277D01*
X4669Y4252D01*
X4694D01*
X4669D01*
X4643Y4227D01*
Y4201D01*
X4669Y4176D01*
X4719D01*
X4745Y4201D01*
X4592Y4303D02*
X4567Y4328D01*
X4516D01*
X4491Y4303D01*
Y4201D01*
X4516Y4176D01*
X4567D01*
X4592Y4201D01*
Y4303D01*
X3665Y4214D02*
Y4366D01*
X3589D01*
X3564Y4341D01*
Y4290D01*
X3589Y4265D01*
X3665D01*
X3614D02*
X3564Y4214D01*
X3411D02*
X3513D01*
X3411Y4315D01*
Y4341D01*
X3437Y4366D01*
X3487D01*
X3513Y4341D01*
X3361Y4239D02*
X3335Y4214D01*
X3284D01*
X3259Y4239D01*
Y4341D01*
X3284Y4366D01*
X3335D01*
X3361Y4341D01*
Y4315D01*
X3335Y4290D01*
X3259D01*
X13449Y7061D02*
Y7214D01*
X13373D01*
X13348Y7188D01*
Y7137D01*
X13373Y7112D01*
X13449D01*
X13398D02*
X13348Y7061D01*
X13195D02*
X13297D01*
X13195Y7163D01*
Y7188D01*
X13221Y7214D01*
X13271D01*
X13297Y7188D01*
X13145D02*
X13119Y7214D01*
X13068D01*
X13043Y7188D01*
Y7163D01*
X13068Y7137D01*
X13043Y7112D01*
Y7087D01*
X13068Y7061D01*
X13119D01*
X13145Y7087D01*
Y7112D01*
X13119Y7137D01*
X13145Y7163D01*
Y7188D01*
X13119Y7137D02*
X13068D01*
X14580Y7023D02*
Y7175D01*
X14503D01*
X14478Y7150D01*
Y7099D01*
X14503Y7074D01*
X14580D01*
X14529D02*
X14478Y7023D01*
X14326D02*
X14427D01*
X14326Y7125D01*
Y7150D01*
X14351Y7175D01*
X14402D01*
X14427Y7150D01*
X14275Y7175D02*
X14173D01*
Y7150D01*
X14275Y7049D01*
Y7023D01*
X8369Y7727D02*
Y7879D01*
X8293D01*
X8268Y7854D01*
Y7803D01*
X8293Y7777D01*
X8369D01*
X8319D02*
X8268Y7727D01*
X8115D02*
X8217D01*
X8115Y7828D01*
Y7854D01*
X8141Y7879D01*
X8192D01*
X8217Y7854D01*
X7963Y7879D02*
X8014Y7854D01*
X8065Y7803D01*
Y7752D01*
X8039Y7727D01*
X7988D01*
X7963Y7752D01*
Y7777D01*
X7988Y7803D01*
X8065D01*
X8369Y7041D02*
Y7193D01*
X8293D01*
X8268Y7168D01*
Y7117D01*
X8293Y7092D01*
X8369D01*
X8319D02*
X8268Y7041D01*
X8115D02*
X8217D01*
X8115Y7142D01*
Y7168D01*
X8141Y7193D01*
X8192D01*
X8217Y7168D01*
X7963Y7193D02*
X8065D01*
Y7117D01*
X8014Y7142D01*
X7988D01*
X7963Y7117D01*
Y7066D01*
X7988Y7041D01*
X8039D01*
X8065Y7066D01*
X17313Y8857D02*
Y9009D01*
X17236D01*
X17211Y8984D01*
Y8933D01*
X17236Y8908D01*
X17313D01*
X17262D02*
X17211Y8857D01*
X17160D02*
X17110D01*
X17135D01*
Y9009D01*
X17160Y8984D01*
X17033D02*
X17008Y9009D01*
X16957D01*
X16932Y8984D01*
Y8882D01*
X16957Y8857D01*
X17008D01*
X17033Y8882D01*
Y8984D01*
X17554Y5297D02*
Y5422D01*
X17491D01*
X17471Y5401D01*
Y5359D01*
X17491Y5339D01*
X17554D01*
X17512D02*
X17471Y5297D01*
X17429Y5401D02*
X17408Y5422D01*
X17366D01*
X17346Y5401D01*
Y5380D01*
X17366Y5359D01*
X17346Y5339D01*
Y5318D01*
X17366Y5297D01*
X17408D01*
X17429Y5318D01*
Y5339D01*
X17408Y5359D01*
X17429Y5380D01*
Y5401D01*
X17408Y5359D02*
X17366D01*
X2906Y7432D02*
X2957D01*
X2931D01*
Y7305D01*
X2957Y7280D01*
X2982D01*
X3007Y7305D01*
X2830Y7280D02*
X2779D01*
X2753Y7305D01*
Y7356D01*
X2779Y7381D01*
X2830D01*
X2855Y7356D01*
Y7305D01*
X2830Y7280D01*
X2652Y7229D02*
X2626D01*
X2601Y7254D01*
Y7381D01*
X2677D01*
X2703Y7356D01*
Y7305D01*
X2677Y7280D01*
X2601D01*
X2322Y7432D02*
X2373D01*
X2398Y7407D01*
Y7305D01*
X2373Y7280D01*
X2322D01*
X2296Y7305D01*
Y7407D01*
X2322Y7432D01*
X2246Y7229D02*
Y7381D01*
X2169D01*
X2144Y7356D01*
Y7305D01*
X2169Y7280D01*
X2246D01*
X2068Y7407D02*
Y7381D01*
X2093D01*
X2042D01*
X2068D01*
Y7305D01*
X2042Y7280D01*
X1941D02*
X1890D01*
X1865Y7305D01*
Y7356D01*
X1890Y7381D01*
X1941D01*
X1966Y7356D01*
Y7305D01*
X1941Y7280D01*
X7595Y3251D02*
X7620Y3277D01*
X7671D01*
X7696Y3251D01*
Y3150D01*
X7671Y3124D01*
X7620D01*
X7595Y3150D01*
X7442Y3124D02*
X7544D01*
X7442Y3226D01*
Y3251D01*
X7468Y3277D01*
X7518D01*
X7544Y3251D01*
X7391Y3124D02*
X7341D01*
X7366D01*
Y3277D01*
X7391Y3251D01*
X1638Y9675D02*
X1664Y9700D01*
X1715D01*
X1740Y9675D01*
Y9573D01*
X1715Y9548D01*
X1664D01*
X1638Y9573D01*
X1486Y9548D02*
X1588D01*
X1486Y9649D01*
Y9675D01*
X1511Y9700D01*
X1562D01*
X1588Y9675D01*
X1435D02*
X1410Y9700D01*
X1359D01*
X1334Y9675D01*
Y9573D01*
X1359Y9548D01*
X1410D01*
X1435Y9573D01*
Y9675D01*
X7379Y6944D02*
X7404Y6970D01*
X7455D01*
X7480Y6944D01*
Y6843D01*
X7455Y6817D01*
X7404D01*
X7379Y6843D01*
X7328Y6817D02*
X7277D01*
X7303D01*
Y6970D01*
X7328Y6944D01*
X7201Y6843D02*
X7176Y6817D01*
X7125D01*
X7099Y6843D01*
Y6944D01*
X7125Y6970D01*
X7176D01*
X7201Y6944D01*
Y6919D01*
X7176Y6894D01*
X7099D01*
X4051Y3683D02*
X4077Y3708D01*
X4127D01*
X4153Y3683D01*
Y3581D01*
X4127Y3556D01*
X4077D01*
X4051Y3581D01*
X4000Y3556D02*
X3950D01*
X3975D01*
Y3708D01*
X4000Y3683D01*
X3874D02*
X3848Y3708D01*
X3797D01*
X3772Y3683D01*
Y3658D01*
X3797Y3632D01*
X3772Y3607D01*
Y3581D01*
X3797Y3556D01*
X3848D01*
X3874Y3581D01*
Y3607D01*
X3848Y3632D01*
X3874Y3658D01*
Y3683D01*
X3848Y3632D02*
X3797D01*
X12713Y7823D02*
X12738Y7849D01*
X12789D01*
X12814Y7823D01*
Y7722D01*
X12789Y7696D01*
X12738D01*
X12713Y7722D01*
X12662Y7696D02*
X12611D01*
X12636D01*
Y7849D01*
X12662Y7823D01*
X12535Y7849D02*
X12433D01*
Y7823D01*
X12535Y7722D01*
Y7696D01*
X8443Y8506D02*
X8468Y8532D01*
X8519D01*
X8545Y8506D01*
Y8405D01*
X8519Y8379D01*
X8468D01*
X8443Y8405D01*
X8392Y8379D02*
X8341D01*
X8367D01*
Y8532D01*
X8392Y8506D01*
X8164Y8532D02*
X8214Y8506D01*
X8265Y8456D01*
Y8405D01*
X8240Y8379D01*
X8189D01*
X8164Y8405D01*
Y8430D01*
X8189Y8456D01*
X8265D01*
M02*
