G04*
G04 #@! TF.GenerationSoftware,Altium Limited,Altium Designer,24.2.2 (26)*
G04*
G04 Layer_Physical_Order=1*
G04 Layer_Color=255*
%FSLAX42Y42*%
%MOMM*%
G71*
G04*
G04 #@! TF.SameCoordinates,1B85D7C3-CB2C-498D-ACBB-91D5DC165851*
G04*
G04*
G04 #@! TF.FilePolarity,Positive*
G04*
G01*
G75*
%ADD14C,0.25*%
%ADD16R,1.40X0.62*%
%ADD17R,1.45X2.10*%
%ADD18R,2.40X1.10*%
%ADD19R,1.55X0.70*%
%ADD20C,1.37*%
%ADD31C,1.39*%
%ADD32R,1.39X1.39*%
%ADD34C,1.20*%
%ADD35R,1.20X1.20*%
%ADD40R,1.60X1.60*%
%ADD41C,1.60*%
%ADD54R,1.20X1.20*%
%ADD63C,1.55*%
%ADD64C,1.50*%
%ADD65R,1.50X1.50*%
%ADD66C,1.58*%
%ADD67C,1.43*%
%ADD68C,1.80*%
%ADD69C,1.35*%
%ADD70R,1.80X1.80*%
%ADD71R,1.35X1.35*%
%ADD72C,1.60*%
%ADD73C,0.48*%
%ADD74C,1.40*%
%ADD75R,1.40X1.40*%
%ADD76R,1.40X1.40*%
%ADD77R,1.35X1.35*%
%ADD78C,1.27*%
%ADD79R,1.43X1.43*%
G04:AMPARAMS|DCode=80|XSize=1.6mm|YSize=1.6mm|CornerRadius=0.4mm|HoleSize=0mm|Usage=FLASHONLY|Rotation=90.000|XOffset=0mm|YOffset=0mm|HoleType=Round|Shape=RoundedRectangle|*
%AMROUNDEDRECTD80*
21,1,1.60,0.80,0,0,90.0*
21,1,0.80,1.60,0,0,90.0*
1,1,0.80,0.40,0.40*
1,1,0.80,0.40,-0.40*
1,1,0.80,-0.40,-0.40*
1,1,0.80,-0.40,0.40*
%
%ADD80ROUNDEDRECTD80*%
G04:AMPARAMS|DCode=81|XSize=3.5mm|YSize=1.3mm|CornerRadius=0.33mm|HoleSize=0mm|Usage=FLASHONLY|Rotation=0.000|XOffset=0mm|YOffset=0mm|HoleType=Round|Shape=RoundedRectangle|*
%AMROUNDEDRECTD81*
21,1,3.50,0.65,0,0,0.0*
21,1,2.85,1.30,0,0,0.0*
1,1,0.65,1.43,-0.33*
1,1,0.65,-1.43,-0.33*
1,1,0.65,-1.43,0.33*
1,1,0.65,1.43,0.33*
%
%ADD81ROUNDEDRECTD81*%
G04:AMPARAMS|DCode=82|XSize=3.5mm|YSize=1.3mm|CornerRadius=0.33mm|HoleSize=0mm|Usage=FLASHONLY|Rotation=270.000|XOffset=0mm|YOffset=0mm|HoleType=Round|Shape=RoundedRectangle|*
%AMROUNDEDRECTD82*
21,1,3.50,0.65,0,0,270.0*
21,1,2.85,1.30,0,0,270.0*
1,1,0.65,-0.33,-1.43*
1,1,0.65,-0.33,1.43*
1,1,0.65,0.33,1.43*
1,1,0.65,0.33,-1.43*
%
%ADD82ROUNDEDRECTD82*%
G04:AMPARAMS|DCode=83|XSize=4mm|YSize=1.3mm|CornerRadius=0.33mm|HoleSize=0mm|Usage=FLASHONLY|Rotation=270.000|XOffset=0mm|YOffset=0mm|HoleType=Round|Shape=RoundedRectangle|*
%AMROUNDEDRECTD83*
21,1,4.00,0.65,0,0,270.0*
21,1,3.35,1.30,0,0,270.0*
1,1,0.65,-0.33,-1.68*
1,1,0.65,-0.33,1.68*
1,1,0.65,0.33,1.68*
1,1,0.65,0.33,-1.68*
%
%ADD83ROUNDEDRECTD83*%
%ADD84R,1.30X1.30*%
%ADD85C,1.30*%
G04:AMPARAMS|DCode=86|XSize=1.6mm|YSize=1.6mm|CornerRadius=0.4mm|HoleSize=0mm|Usage=FLASHONLY|Rotation=0.000|XOffset=0mm|YOffset=0mm|HoleType=Round|Shape=RoundedRectangle|*
%AMROUNDEDRECTD86*
21,1,1.60,0.80,0,0,0.0*
21,1,0.80,1.60,0,0,0.0*
1,1,0.80,0.40,-0.40*
1,1,0.80,-0.40,-0.40*
1,1,0.80,-0.40,0.40*
1,1,0.80,0.40,0.40*
%
%ADD86ROUNDEDRECTD86*%
%ADD87C,1.95*%
%ADD88R,1.95X1.95*%
%ADD89C,2.25*%
%ADD90R,1.50X1.50*%
%ADD91R,1.05X1.05*%
%ADD92C,1.05*%
%ADD93C,1.27*%
G36*
X18618Y1467D02*
Y1594D01*
Y1599D01*
X18622Y1608D01*
X18629Y1615D01*
X18638Y1619D01*
X18643D01*
D01*
X18771D01*
X18776D01*
X18785Y1615D01*
X18792Y1608D01*
X18796Y1599D01*
Y1594D01*
D01*
Y1467D01*
X18618D01*
D02*
G37*
G36*
X18872D02*
Y1594D01*
Y1599D01*
X18876Y1608D01*
X18883Y1615D01*
X18892Y1619D01*
X18897D01*
D01*
X19025D01*
X19030D01*
X19039Y1615D01*
X19046Y1608D01*
X19050Y1599D01*
Y1594D01*
D01*
Y1467D01*
X18872D01*
D02*
G37*
G36*
X18796Y2572D02*
Y2445D01*
Y2440D01*
X18792Y2431D01*
X18785Y2424D01*
X18776Y2420D01*
X18771D01*
D01*
X18643D01*
X18638D01*
X18629Y2424D01*
X18622Y2431D01*
X18618Y2440D01*
Y2445D01*
D01*
Y2572D01*
X18796D01*
D02*
G37*
G36*
X19050D02*
Y2445D01*
Y2440D01*
X19046Y2431D01*
X19039Y2424D01*
X19030Y2420D01*
X19025D01*
D01*
X18897D01*
X18892D01*
X18883Y2424D01*
X18876Y2431D01*
X18872Y2440D01*
Y2445D01*
D01*
Y2572D01*
X19050D01*
D02*
G37*
D14*
X15577Y572D02*
Y826D01*
X15583Y422D02*
Y622D01*
X15392Y787D02*
Y1181D01*
Y584D02*
Y711D01*
X15576Y996D02*
X15875Y1295D01*
X15576Y826D02*
Y996D01*
X15392Y711D02*
Y787D01*
X11786Y4651D02*
X11799Y4665D01*
X15875Y2070D02*
X16040D01*
X15875Y1295D02*
Y1308D01*
X16053Y1232D02*
Y1346D01*
X15875Y1054D02*
X16053Y1232D01*
X15748Y1435D02*
X15964D01*
X16053Y1346D01*
X15748Y1435D02*
X15748Y4648D01*
X15888Y4788D01*
X15392Y396D02*
Y584D01*
X15517Y1676D02*
X15519D01*
X15392D02*
X15517D01*
Y7282D01*
Y1674D02*
Y1676D01*
Y1674D02*
X15519Y1676D01*
X18479Y8217D02*
X18634Y8061D01*
X18466Y8230D02*
X18479Y8217D01*
X11831Y4665D02*
X11838Y4658D01*
X11822Y4674D02*
X11831Y4665D01*
X11964D01*
X11799D02*
X11831D01*
X15517Y7282D02*
X16256Y8021D01*
X17259Y1536D02*
X18237Y558D01*
X17259Y1536D02*
Y3238D01*
X15583Y422D02*
X15609Y383D01*
X15609Y379D01*
X15615Y373D01*
X15696Y293D01*
X18961Y3030D02*
X19449Y3518D01*
X16997Y3501D02*
X17259Y3238D01*
X16997Y3501D02*
Y3512D01*
X16459Y3518D02*
X16465Y3512D01*
X16997D01*
Y3924D01*
X16459Y3175D02*
Y3518D01*
X16105Y2820D02*
X16459Y3175D01*
X16105Y2464D02*
Y2820D01*
X13081Y3917D02*
X13208D01*
X14224Y4933D01*
X14691D01*
X15331Y5573D01*
Y7074D01*
X15253Y7153D02*
X15331Y7074D01*
X15253Y7153D02*
Y8045D01*
X15367Y8159D01*
X17757Y8462D02*
X18238D01*
X16105Y2135D02*
Y2464D01*
X12298Y5068D02*
X12305Y5075D01*
X4798Y9101D02*
X4877D01*
X12037Y4778D02*
X12065Y4806D01*
X11989Y4508D02*
X12170Y4327D01*
X11786Y4508D02*
X11989D01*
X11786D02*
Y4651D01*
X12209Y4801D02*
X12325D01*
X12139Y4731D02*
X12209Y4801D01*
X12134Y4731D02*
X12139D01*
X11579Y5051D02*
X11777D01*
X11780Y5055D01*
X11576Y5048D02*
X11579Y5051D01*
X12156Y5068D02*
X12298D01*
X12129Y5232D02*
X12156D01*
X12143Y5081D02*
X12156Y5068D01*
X12210Y5286D02*
X12303D01*
X12156Y5232D02*
X12210Y5286D01*
X12305Y5075D02*
X12325Y5055D01*
X12014Y5066D02*
X12090Y4990D01*
X12014Y5295D02*
X12090Y5371D01*
X12014Y5066D02*
Y5295D01*
X11780Y4928D02*
X11989D01*
X11780Y5436D02*
X11783Y5432D01*
X11977D02*
X11980Y5429D01*
X11783Y5432D02*
X11977D01*
X12303Y5286D02*
X12325Y5309D01*
X12090Y5657D02*
X12192Y5758D01*
X12065Y4806D02*
Y4860D01*
X12090Y5371D02*
Y5657D01*
X12065Y4860D02*
X12090Y4886D01*
X12306Y5639D02*
X12520D01*
X12036Y4770D02*
X12037Y4778D01*
X12529Y5188D02*
X12535Y5194D01*
X12331Y5188D02*
X12529D01*
X12325Y5182D02*
X12331Y5188D01*
X6800Y7648D02*
X6828D01*
X6759Y7607D02*
X6800Y7648D01*
X6316Y7607D02*
X6759D01*
X6276Y7648D02*
X6316Y7607D01*
X6007Y7648D02*
X6276D01*
X6515Y7709D02*
Y8283D01*
X6401Y8397D02*
X6515Y8283D01*
X5903Y7859D02*
X6134Y8090D01*
X5903Y7136D02*
Y7859D01*
X6007Y7175D02*
X7234D01*
X7172Y7074D02*
X7654Y6591D01*
X5965Y7074D02*
X7172D01*
X7234Y7175D02*
X7704Y7645D01*
X5903Y7136D02*
X5965Y7074D01*
X11623Y6864D02*
Y7480D01*
X11693Y6794D02*
X12144D01*
X11735Y6896D02*
Y7150D01*
X11623Y6864D02*
X11693Y6794D01*
X12144D02*
X12659Y7310D01*
X11227Y6883D02*
Y7150D01*
X11989Y6240D02*
Y6464D01*
X13106Y6794D02*
Y7137D01*
X1388Y8429D02*
Y9322D01*
Y8429D02*
X1676Y8141D01*
X2502Y7252D02*
Y8534D01*
X16802Y1613D02*
Y1892D01*
X8801Y3340D02*
Y3368D01*
X8762Y3407D02*
Y4483D01*
Y3407D02*
X8801Y3368D01*
X8421Y3230D02*
X9147D01*
X8315Y3124D02*
X8421Y3230D01*
X18732Y7528D02*
Y7635D01*
X18593Y7774D02*
X18732Y7635D01*
X18634Y7816D02*
Y8061D01*
X18593Y7774D02*
X18634Y7816D01*
X18240Y8024D02*
X18476D01*
X18238Y8022D02*
X18240Y8024D01*
X18476D02*
X18479Y8026D01*
X18238Y8242D02*
X18251Y8230D01*
X18466D01*
X18230Y8690D02*
X18238Y8682D01*
X18145Y8690D02*
X18230D01*
X18009Y8826D02*
X18145Y8690D01*
X17907Y8869D02*
X18131Y9092D01*
Y9246D01*
X17887Y8649D02*
X17907Y8669D01*
Y8869D01*
X18110Y8374D02*
X18132Y8352D01*
X17813Y8374D02*
X18110D01*
X17704Y8357D02*
X17795D01*
X18132Y8352D02*
X18238D01*
X16515Y9545D02*
X17704Y8357D01*
X17795D02*
X17813Y8374D01*
X12446Y4674D02*
X12535Y4585D01*
X12325Y4674D02*
X12446D01*
X11964Y4665D02*
X11991Y4692D01*
X11995Y4697D01*
X11780Y4674D02*
X11822D01*
X11995Y4697D02*
X12035Y4764D01*
X12090Y4886D02*
Y4990D01*
X12035Y4764D02*
X12036Y4770D01*
X12170Y2400D02*
Y4327D01*
X13048Y5989D02*
Y6058D01*
X12833Y5924D02*
X12890Y5982D01*
X13048Y5989D02*
X13056Y5982D01*
X12890D02*
X13056D01*
X12294Y6058D02*
X13048D01*
X12748Y5758D02*
X12833Y5843D01*
Y5924D01*
X12520Y5639D02*
X12670Y5489D01*
X12192Y5758D02*
X12748D01*
X18036Y8052D02*
X18117Y8132D01*
X18030Y7912D02*
X18238D01*
X17932Y8010D02*
X18030Y7912D01*
X18034Y8052D02*
X18036D01*
X17932Y8010D02*
Y8255D01*
X18117Y8132D02*
X18238D01*
X16853Y2119D02*
Y2896D01*
X11163Y5613D02*
Y5906D01*
X10873Y5323D02*
X11163Y5613D01*
X14122Y5994D02*
Y6227D01*
X14011Y5862D02*
X14331Y5542D01*
X14011Y6685D02*
X14234Y6909D01*
X14011Y5862D02*
Y6685D01*
X6984Y4737D02*
Y5158D01*
X6629Y5512D02*
X6984Y5158D01*
X2883Y6045D02*
Y6515D01*
Y6045D02*
X3785Y5144D01*
X4008Y3980D02*
Y6510D01*
X4059Y4116D02*
Y6187D01*
X4008Y6510D02*
X4508Y7010D01*
X4008Y3980D02*
X4704Y3284D01*
X4059Y6187D02*
X4851Y6980D01*
X4059Y4116D02*
X4200Y3975D01*
X4940Y9249D02*
Y9728D01*
X4891Y9200D02*
X4940Y9249D01*
X4742Y9200D02*
X4891D01*
X16515Y9545D02*
Y9550D01*
X11773Y6058D02*
X12294D01*
X13048D02*
X13106Y6116D01*
X12170Y1571D02*
Y2400D01*
X11227Y6330D02*
Y6360D01*
X8718Y7718D02*
Y8016D01*
X14376Y2924D02*
Y3137D01*
Y2924D02*
X14412Y2888D01*
Y2540D02*
Y2888D01*
X14288Y2416D02*
X14412Y2540D01*
X13896Y2416D02*
X14288D01*
X12738Y1257D02*
X13896Y2416D01*
X12170Y1571D02*
X12484Y1257D01*
X11786Y2182D02*
X11869Y2098D01*
X12170Y2400D01*
X12243Y6109D02*
X12294Y6058D01*
X12243Y6109D02*
Y6240D01*
X11735Y6096D02*
Y6240D01*
Y6096D02*
X11773Y6058D01*
X13106Y6116D02*
Y6227D01*
X4798Y9055D02*
Y9101D01*
X4877D02*
X4943Y9167D01*
X5093D01*
X5161Y9235D01*
Y9398D01*
X5283Y9520D01*
X9246D01*
X9416Y9350D01*
Y8989D02*
Y9350D01*
Y8989D02*
X9550Y8854D01*
X9754D01*
X9886Y8987D01*
Y9093D01*
X9955Y9163D01*
X10090D01*
X10147Y9106D01*
X12090D01*
X12596Y8600D01*
X13818D01*
X14234Y8184D01*
Y6909D02*
Y8184D01*
X14331Y5443D02*
Y5542D01*
X13736Y4849D02*
X14331Y5443D01*
X13546Y4679D02*
X13736Y4849D01*
X13546Y4524D02*
Y4679D01*
X13188Y4166D02*
X13546Y4524D01*
X12990Y4166D02*
X13188D01*
X12888Y4064D02*
X12990Y4166D01*
X12888Y2804D02*
Y4064D01*
X12751Y2667D02*
X12888Y2804D01*
X10278Y2519D02*
X10414Y2654D01*
X10095Y2519D02*
X10278D01*
X9886Y2728D02*
X10095Y2519D01*
X9886Y2728D02*
Y4534D01*
X9980Y4628D01*
X10139D01*
Y4867D01*
X9957Y5050D02*
X10139Y4867D01*
X11938Y2654D02*
X12069Y2785D01*
Y3251D01*
X10974Y4346D02*
X12069Y3251D01*
X10368Y4346D02*
X10974D01*
X10295Y4419D02*
X10368Y4346D01*
X10295Y4419D02*
Y5621D01*
X10312Y5639D01*
Y5954D01*
X10295Y5972D02*
X10312Y5954D01*
X10295Y5972D02*
Y7910D01*
X9657Y8547D02*
X10295Y7910D01*
X4697Y4724D02*
X4953Y4980D01*
Y8131D01*
X4432Y8651D02*
X4953Y8131D01*
X4432Y8651D02*
Y9545D01*
X14122Y7137D02*
Y7973D01*
X14127Y7978D01*
Y8166D01*
X14054Y8240D02*
X14127Y8166D01*
X12764Y8240D02*
X14054D01*
X12659Y8136D02*
X12764Y8240D01*
X12659Y7310D02*
Y8136D01*
X11623Y7480D02*
X12032Y7889D01*
Y8550D01*
X11882Y8700D02*
X12032Y8550D01*
X9622Y8700D02*
X11882D01*
X9505Y8583D02*
X9622Y8700D01*
X9505Y5006D02*
Y8583D01*
X14630Y6812D02*
Y7137D01*
X14501Y6683D02*
X14630Y6812D01*
X11582Y5474D02*
Y5900D01*
X11481Y5372D02*
X11582Y5474D01*
X11021Y5372D02*
X11481D01*
X10780Y5131D02*
X11021Y5372D01*
X9096Y7493D02*
X9274Y7315D01*
X9096Y7493D02*
Y8975D01*
X9016Y9055D02*
X9096Y8975D01*
X9016Y4737D02*
Y6161D01*
X9014Y6162D02*
X9016Y6161D01*
Y4483D02*
X9141Y4609D01*
X9303D01*
X9411Y4501D01*
Y3475D02*
Y4501D01*
Y3475D02*
X9756Y3129D01*
Y2431D02*
Y3129D01*
X9715Y2390D02*
X9756Y2431D01*
X13185Y3195D02*
X15400Y5410D01*
X6657Y3800D02*
X6668Y3811D01*
X6984D01*
X7036Y3759D01*
Y2984D02*
Y3759D01*
Y2984D02*
X7569Y2451D01*
X9368D01*
X2502Y8534D02*
X2616Y8649D01*
X3271D01*
X4401Y7518D01*
X13868Y5848D02*
X14224Y5492D01*
X13868Y5848D02*
Y6227D01*
X6876Y4282D02*
X7614Y3543D01*
X6876Y4282D02*
Y5034D01*
X5852Y6058D02*
X6876Y5034D01*
X5852Y6058D02*
Y8059D01*
X5994Y8202D01*
X6388D01*
X7704Y7645D02*
X8348D01*
X8718Y8016D01*
Y8153D01*
X2863Y1889D02*
X3073Y2098D01*
X3604D01*
X5641Y61D01*
X9855D01*
X9959Y165D01*
Y1783D01*
X10695Y2519D01*
X12074D01*
X12120Y2565D01*
Y3278D01*
X11247Y4150D02*
X12120Y3278D01*
X11247Y4150D02*
Y5029D01*
X11400Y5182D01*
X11780D01*
X4006Y2650D02*
X4244Y2888D01*
X4006Y1889D02*
Y2650D01*
X6226Y3144D02*
Y5362D01*
X5605Y2524D02*
X6226Y3144D01*
X6748Y3547D02*
X6906Y3706D01*
X6748Y2524D02*
Y3547D01*
X4702Y293D02*
Y775D01*
X4249Y1228D02*
X4702Y775D01*
X10465Y4579D02*
X11194Y5309D01*
X11780D01*
X18961Y2496D02*
Y3030D01*
X10498Y5019D02*
X10802Y5323D01*
X10873D01*
X10719Y6868D02*
Y7150D01*
X14630Y6001D02*
Y6227D01*
X17056Y1892D02*
Y2342D01*
X17107Y2393D01*
Y2896D01*
X5954Y2047D02*
X6327Y2421D01*
Y5479D01*
X5194Y6612D02*
X6327Y5479D01*
X5194Y6612D02*
Y8944D01*
X5306Y9055D01*
X9524Y4737D02*
X9649Y4611D01*
Y3358D02*
Y4611D01*
Y3358D02*
X9820Y3188D01*
Y152D02*
Y3188D01*
X9779Y112D02*
X9820Y152D01*
X7945Y112D02*
X9779D01*
X7761Y295D02*
X7945Y112D01*
X13614Y6784D02*
Y7137D01*
X13513Y6683D02*
X13614Y6784D01*
X10465Y6683D02*
X13513D01*
X10345Y6563D02*
X10465Y6683D01*
X10345Y6040D02*
Y6563D01*
Y6040D02*
X10363Y6022D01*
Y5606D02*
Y6022D01*
X10358Y5600D02*
X10363Y5606D01*
X10358Y4473D02*
Y5600D01*
Y4473D02*
X10668D01*
X10244Y3122D02*
X10450Y2916D01*
X10244Y3122D02*
Y5682D01*
X10262Y5700D01*
Y5921D01*
X10099Y6083D02*
X10262Y5921D01*
X10099Y6083D02*
Y7214D01*
X9967Y7346D02*
X10099Y7214D01*
X9835Y7346D02*
X9967D01*
X9703Y7214D02*
X9835Y7346D01*
X9703Y5042D02*
Y7214D01*
X9550Y4890D02*
X9703Y5042D01*
X9398Y4890D02*
X9550D01*
X9375Y4912D02*
X9398Y4890D01*
X9375Y4912D02*
Y8534D01*
X9162Y8748D02*
X9375Y8534D01*
X9162Y8748D02*
Y9096D01*
X9093Y9164D02*
X9162Y9096D01*
X5669Y9164D02*
X9093D01*
X5560Y9055D02*
X5669Y9164D01*
X12243Y7150D02*
Y7460D01*
X12578Y7795D01*
Y8204D01*
X11930Y8852D02*
X12578Y8204D01*
X10235Y8852D02*
X11930D01*
X10032Y9055D02*
X10235Y8852D01*
X11989Y7150D02*
Y7615D01*
X12471Y8098D01*
X4951Y4724D02*
X5042Y4815D01*
Y8331D01*
X7447Y5189D02*
X8252D01*
X8362Y5080D01*
Y4629D02*
Y5080D01*
Y4629D02*
X8508Y4483D01*
X7492Y4737D02*
X7600Y4629D01*
Y4420D02*
Y4629D01*
X7549Y4369D02*
X7600Y4420D01*
X7181Y4369D02*
X7549D01*
X7130Y4420D02*
X7181Y4369D01*
X7130Y4420D02*
Y6109D01*
X7087Y6152D02*
X7130Y6109D01*
X6083Y6152D02*
X7087D01*
X6043Y6111D02*
X6083Y6152D01*
X12497Y2667D02*
Y4003D01*
X12964Y4470D01*
X13277D01*
X13302Y4496D01*
Y4702D01*
X12670Y5334D02*
X13302Y4702D01*
X12670Y5334D02*
Y5489D01*
X7492Y8698D02*
X8352Y7838D01*
X7492Y8698D02*
Y9055D01*
X14399Y5769D02*
X14630Y6001D01*
X7798Y1245D02*
Y1973D01*
X7248Y2524D02*
X7798Y1973D01*
X12325Y5436D02*
X12555D01*
X9147Y3230D02*
X9270Y3353D01*
Y4483D01*
X5052Y9055D02*
X5053D01*
X5165Y9167D01*
X5385D01*
X5415Y9136D01*
Y9042D02*
Y9136D01*
Y9042D02*
X5580Y8877D01*
X7054D01*
X8184Y7747D01*
X10160Y4925D02*
Y5771D01*
Y4925D02*
X10190Y4896D01*
Y4580D02*
Y4896D01*
X10185Y4580D02*
X10190D01*
X10160Y4554D02*
X10185Y4580D01*
X10160Y2654D02*
Y4554D01*
X7238Y4483D02*
X7346Y4591D01*
Y5354D01*
X7986Y5994D01*
Y6287D01*
X9025Y7325D01*
Y8730D01*
X8923Y8832D02*
X9025Y8730D01*
X9855Y4928D02*
Y7137D01*
Y4928D02*
X9886Y4897D01*
Y4678D02*
Y4897D01*
X9778Y4569D02*
X9886Y4678D01*
X9778Y4483D02*
Y4569D01*
X11354Y5479D02*
X11481Y5606D01*
Y6240D01*
X7238Y4737D02*
Y4968D01*
X5459Y4724D02*
Y5796D01*
X5375Y5880D02*
X5459Y5796D01*
X3637Y8580D02*
X4674Y7544D01*
X3637Y8580D02*
Y9418D01*
X3571Y9484D02*
X3637Y9418D01*
X2316Y9484D02*
X3571D01*
X2210Y9378D02*
X2316Y9484D01*
X7160Y3571D02*
X8052Y2680D01*
X7160Y3571D02*
Y3772D01*
X7010Y3922D02*
X7160Y3772D01*
X6574Y3922D02*
X7010D01*
X6411Y3759D02*
X6574Y3922D01*
X6411Y1842D02*
Y3759D01*
X6350Y1781D02*
X6411Y1842D01*
X4854Y1781D02*
X6350D01*
X4704Y1930D02*
X4854Y1781D01*
X4704Y1930D02*
Y3284D01*
X4508Y7010D02*
Y7625D01*
X3528Y8606D02*
X4508Y7625D01*
X3528Y8606D02*
Y9055D01*
X8218Y8153D02*
Y8837D01*
X8000Y9055D02*
X8218Y8837D01*
X4686Y9144D02*
X4742Y9200D01*
X4686Y8992D02*
Y9144D01*
Y8992D02*
X5144Y8534D01*
Y6238D02*
Y8534D01*
Y6238D02*
X5205Y6177D01*
Y4724D02*
Y6177D01*
X14508Y5479D02*
X14796D01*
X14247Y5740D02*
X14508Y5479D01*
X14247Y5740D02*
Y6002D01*
X14376Y6132D01*
Y6227D01*
X16256Y8021D02*
Y8407D01*
X15499Y9164D02*
X16256Y8407D01*
X10442Y9164D02*
X15499D01*
X10190Y9417D02*
X10442Y9164D01*
X9703Y9417D02*
X10190D01*
X9665Y9379D02*
X9703Y9417D01*
X9665Y9197D02*
Y9379D01*
X9524Y9055D02*
X9665Y9197D01*
X14852Y7480D02*
Y8636D01*
X14503Y8984D02*
X14852Y8636D01*
X15367Y7259D02*
X15959Y7851D01*
Y8255D01*
X11201Y6386D02*
X11227Y6360D01*
X10744Y6386D02*
X11201D01*
X10719Y6360D02*
X10744Y6386D01*
X10719Y6240D02*
Y6360D01*
X7892Y3547D02*
X8315Y3124D01*
X7892Y3547D02*
Y4591D01*
X7746Y4737D02*
X7892Y4591D01*
X11227Y6240D02*
Y6330D01*
X11384Y6487D01*
X11684D01*
X11735Y6436D01*
Y6240D02*
Y6436D01*
X7841Y5474D02*
Y5756D01*
X8918Y6833D01*
X13614Y5769D02*
Y6227D01*
X16967Y6045D02*
X17031Y5982D01*
X16967Y6045D02*
X17018Y6096D01*
Y6531D01*
X1029Y182D02*
Y1197D01*
X1720Y1889D01*
X1420Y2189D02*
X1720Y1889D01*
X1420Y2189D02*
Y2761D01*
X1940Y3281D01*
Y4630D01*
X2524D02*
X2667Y4773D01*
Y8478D01*
X3108Y4314D02*
Y4630D01*
Y4314D02*
X3365Y4057D01*
X9055Y3365D02*
Y3665D01*
X9035Y3685D02*
X9055Y3665D01*
X9035Y3685D02*
Y3988D01*
X8887Y4136D02*
X9035Y3988D01*
X8887Y4136D02*
Y5128D01*
X8542Y5474D02*
X8887Y5128D01*
X7841Y5474D02*
X8542D01*
X15240Y6464D02*
Y7092D01*
X14852Y7480D02*
X15240Y7092D01*
X16040Y2070D02*
X16105Y2135D01*
X9436Y1384D02*
X9576Y1245D01*
X9436Y1384D02*
Y1806D01*
X11786Y1397D02*
Y1832D01*
Y1397D02*
X11951Y1232D01*
X14110Y1410D02*
Y1832D01*
Y1410D02*
X14262Y1257D01*
X16679Y1228D02*
Y1448D01*
Y1228D02*
X16916Y991D01*
Y558D02*
Y991D01*
X18418Y2710D02*
X18493D01*
X18707Y2496D01*
X7961Y295D02*
Y1081D01*
X7798Y1245D02*
X7961Y1081D01*
X9322Y1245D02*
Y2042D01*
X9436Y2156D01*
X11697Y1232D02*
Y1516D01*
X11666Y1547D02*
X11697Y1516D01*
X11666Y1547D02*
Y2062D01*
X11786Y2182D01*
X3700Y2630D02*
X3806Y2524D01*
X3700Y2630D02*
Y3975D01*
X1020Y2524D02*
X1334Y2837D01*
Y3004D01*
X14008Y1257D02*
Y1534D01*
X13990Y1552D02*
X14008Y1534D01*
X13990Y1552D02*
Y2062D01*
X14110Y2182D01*
X16802Y1613D02*
X16967Y1448D01*
X17179D01*
Y1231D02*
Y1448D01*
Y1231D02*
X17424Y986D01*
Y558D02*
Y986D01*
X14630Y6227D02*
X14915D01*
X14952Y6264D01*
X15240D01*
X13614Y6227D02*
Y6609D01*
X13741Y6736D01*
Y7285D01*
X13665Y7361D02*
X13741Y7285D01*
X13513Y7361D02*
X13665D01*
X13458Y7416D02*
X13513Y7361D01*
X13458Y7416D02*
Y7760D01*
X18745Y558D02*
Y1029D01*
X18707Y1067D02*
X18745Y1029D01*
X18707Y1067D02*
Y1543D01*
X17018Y6731D02*
X17130Y6619D01*
Y5881D02*
Y6619D01*
X17031Y5782D02*
X17130Y5881D01*
X17031Y5782D02*
X17339D01*
X17805Y6248D01*
X17031Y5586D02*
Y5782D01*
X17000Y5555D02*
X17031Y5586D01*
X17000Y5359D02*
Y5555D01*
Y4421D02*
Y5359D01*
Y4421D02*
X17497Y3924D01*
X19012Y6452D02*
Y6807D01*
X18898Y6922D02*
X19012Y6807D01*
X18712Y6922D02*
X18898D01*
X18712D02*
Y7084D01*
X18633Y7163D02*
X18712Y7084D01*
X18633Y7163D02*
Y7429D01*
X18732Y7528D01*
X18979Y7774D02*
X19338D01*
X18438D02*
X18593D01*
X18131Y9246D02*
X18274Y9389D01*
X18438D01*
X19338D01*
X9322Y2680D02*
Y2870D01*
X9360Y2908D01*
Y3099D01*
X9068Y2680D02*
Y2888D01*
X9055Y2901D02*
X9068Y2888D01*
X9055Y2901D02*
Y3111D01*
X11684Y2654D02*
Y2913D01*
X11697Y2926D01*
Y3188D01*
X11430Y2654D02*
Y2896D01*
X11367Y2959D02*
X11430Y2896D01*
X11367Y2959D02*
Y3200D01*
X14021Y2667D02*
X14122Y2769D01*
Y3137D01*
X13767Y2667D02*
Y3124D01*
X15392Y396D02*
X15496Y293D01*
X16020Y3924D02*
Y7682D01*
X16987Y8649D01*
X829Y182D02*
Y610D01*
X927Y709D01*
Y2278D01*
X846Y2360D02*
X927Y2278D01*
X846Y2360D02*
Y3798D01*
X952Y3904D01*
X16853Y2119D02*
X16929Y2042D01*
X17755Y2464D02*
X18040D01*
X18961Y1543D01*
X10465Y5479D02*
Y6240D01*
X10871Y5479D02*
X10973Y5581D01*
Y6240D01*
X11481Y7150D02*
Y7692D01*
X11887Y8098D01*
X10973Y7150D02*
Y7768D01*
X11303Y8098D01*
X10465Y7150D02*
Y7767D01*
X10795Y8097D01*
X12852Y6227D02*
Y6347D01*
X12878Y6373D01*
X13218D01*
Y5639D02*
Y6373D01*
X13183Y5603D02*
X13218Y5639D01*
X13183Y5479D02*
Y5603D01*
X13360Y5771D02*
Y6227D01*
Y5771D02*
X13652Y5479D01*
X14376Y7137D02*
Y7957D01*
X14503Y8084D01*
X13868Y7137D02*
Y7313D01*
X13835Y7346D02*
X13868Y7313D01*
X13835Y7346D02*
Y7874D01*
X14021Y8059D01*
X13360Y7137D02*
Y7750D01*
X13358Y7752D02*
X13360Y7750D01*
X13358Y7752D02*
Y7942D01*
X13500Y8084D01*
X12852Y7137D02*
Y7333D01*
X13106Y7587D01*
Y7995D01*
X12992Y8110D02*
X13106Y7995D01*
X12778Y7468D02*
X12958Y7648D01*
Y7760D01*
X7654Y6271D02*
Y6591D01*
Y6271D02*
X7880Y6045D01*
X7614Y3324D02*
Y3543D01*
Y3324D02*
X7814Y3124D01*
X8718Y7718D02*
X8918Y7518D01*
X6941Y5474D02*
Y5740D01*
X6979Y5778D01*
Y6045D01*
X8135Y3923D02*
X8515Y3543D01*
X8135Y3923D02*
Y3988D01*
X8018Y6833D02*
Y7518D01*
X2210Y8478D02*
X2667Y8935D01*
Y9378D01*
X5301Y8115D02*
X5583Y8397D01*
X6401D01*
X1720Y1228D02*
X1836Y1345D01*
Y2207D01*
X1520Y2524D02*
X1836Y2207D01*
X2663Y2089D02*
X2863Y1889D01*
X2663Y2089D02*
Y2524D01*
X4249Y1889D02*
X4449Y2089D01*
Y2524D01*
X5405Y1889D02*
X5605Y2089D01*
Y2524D01*
X6548Y1228D02*
X6748Y1428D01*
Y2524D01*
X820Y1228D02*
Y1889D01*
X1963Y1228D02*
Y1889D01*
Y1228D02*
X2708Y483D01*
Y293D02*
Y483D01*
X3106Y1228D02*
Y1889D01*
Y1228D02*
X3686Y648D01*
Y293D02*
Y648D01*
X5405Y1228D02*
X5690Y943D01*
Y295D02*
Y943D01*
X6769Y305D02*
Y549D01*
X7448Y1228D01*
X11575Y4801D02*
X11780D01*
X12325Y4928D02*
X12834D01*
X13183Y4579D01*
X8814Y898D02*
X9461Y250D01*
X8814Y898D02*
Y1245D01*
X9068Y894D02*
Y1245D01*
Y894D02*
X9712Y250D01*
X8560Y902D02*
Y1245D01*
Y902D02*
X9211Y250D01*
X8306Y906D02*
X8962Y250D01*
X8306Y906D02*
Y1245D01*
X11189Y818D02*
Y1232D01*
Y818D02*
X11756Y250D01*
X11443Y814D02*
Y1232D01*
Y814D02*
X12006Y250D01*
X10935Y822D02*
Y1232D01*
Y822D02*
X11506Y250D01*
X10681Y826D02*
Y1232D01*
Y826D02*
X11256Y250D01*
X13500Y737D02*
Y1257D01*
Y737D02*
X13987Y250D01*
X13754Y733D02*
Y1257D01*
Y733D02*
X14237Y250D01*
X13246Y741D02*
Y1257D01*
Y741D02*
X13737Y250D01*
X12992Y745D02*
Y1257D01*
Y745D02*
X13487Y250D01*
D16*
X18238Y8462D02*
D03*
Y8792D02*
D03*
Y8682D02*
D03*
Y8572D02*
D03*
Y8352D02*
D03*
Y8242D02*
D03*
Y8132D02*
D03*
Y8022D02*
D03*
Y7912D02*
D03*
D17*
X12852Y7137D02*
D03*
X13106D02*
D03*
X13360D02*
D03*
X13614D02*
D03*
X13868D02*
D03*
X14122D02*
D03*
X14376D02*
D03*
X14630D02*
D03*
Y6227D02*
D03*
X14376D02*
D03*
X14122D02*
D03*
X13868D02*
D03*
X13614D02*
D03*
X13360D02*
D03*
X13106D02*
D03*
X12852D02*
D03*
X10465Y7150D02*
D03*
X10719D02*
D03*
X10973D02*
D03*
X11227D02*
D03*
X11481D02*
D03*
X11735D02*
D03*
X11989D02*
D03*
X12243D02*
D03*
Y6240D02*
D03*
X11989D02*
D03*
X11735D02*
D03*
X11481D02*
D03*
X11227D02*
D03*
X10973D02*
D03*
X10719D02*
D03*
X10465D02*
D03*
D18*
X18438Y7774D02*
D03*
X19338D02*
D03*
Y9389D02*
D03*
X18438D02*
D03*
D19*
X11780Y5436D02*
D03*
Y5309D02*
D03*
Y5182D02*
D03*
Y5055D02*
D03*
Y4928D02*
D03*
Y4801D02*
D03*
Y4674D02*
D03*
X12325D02*
D03*
Y4801D02*
D03*
Y4928D02*
D03*
Y5055D02*
D03*
Y5182D02*
D03*
Y5309D02*
D03*
Y5436D02*
D03*
D20*
X18961Y2496D02*
D03*
X18707D02*
D03*
Y1543D02*
D03*
X18961D02*
D03*
D31*
X9778Y4483D02*
D03*
X9524Y4737D02*
D03*
Y4483D02*
D03*
X9270D02*
D03*
X9016Y4737D02*
D03*
Y4483D02*
D03*
X8762Y4737D02*
D03*
Y4483D02*
D03*
X8508Y4737D02*
D03*
Y4483D02*
D03*
X8254Y4737D02*
D03*
X7746D02*
D03*
X7492D02*
D03*
Y4483D02*
D03*
X7238Y4737D02*
D03*
Y4483D02*
D03*
X6984Y4737D02*
D03*
X6476Y4483D02*
D03*
X6222Y9055D02*
D03*
X6476D02*
D03*
X7238D02*
D03*
X7492D02*
D03*
X8000D02*
D03*
X8508Y9309D02*
D03*
X9016Y9055D02*
D03*
X9270D02*
D03*
X9524D02*
D03*
X10032D02*
D03*
X6730Y4483D02*
D03*
X6984D02*
D03*
X7746D02*
D03*
X8000D02*
D03*
X8254D02*
D03*
X10032D02*
D03*
X6476Y4737D02*
D03*
X6730D02*
D03*
X8000D02*
D03*
X9270D02*
D03*
X9778D02*
D03*
X7492Y9309D02*
D03*
X5968D02*
D03*
X6222D02*
D03*
X6476D02*
D03*
X6730Y9055D02*
D03*
Y9309D02*
D03*
X6984Y9055D02*
D03*
Y9309D02*
D03*
X7238D02*
D03*
X7746Y9055D02*
D03*
Y9309D02*
D03*
X8000D02*
D03*
X8254Y9055D02*
D03*
Y9309D02*
D03*
X8508Y9055D02*
D03*
X8762D02*
D03*
Y9309D02*
D03*
X9016D02*
D03*
X9270D02*
D03*
X9524D02*
D03*
X9778Y9055D02*
D03*
Y9309D02*
D03*
X10032D02*
D03*
D32*
X5968Y9055D02*
D03*
X10032Y4737D02*
D03*
D34*
X13458Y7760D02*
D03*
X3700Y3975D02*
D03*
X8315Y3124D02*
D03*
X7248Y2524D02*
D03*
X1388Y9322D02*
D03*
X1020Y2524D02*
D03*
X2163D02*
D03*
X3806D02*
D03*
X6105D02*
D03*
X4949D02*
D03*
X8218Y8153D02*
D03*
X7154Y6591D02*
D03*
X17031Y5982D02*
D03*
X18732Y7328D02*
D03*
X17179Y1448D02*
D03*
X17497Y3924D02*
D03*
D35*
X12958Y7760D02*
D03*
X4200Y3975D02*
D03*
X7814Y3124D02*
D03*
X6748Y2524D02*
D03*
X1888Y9322D02*
D03*
X1520Y2524D02*
D03*
X2663D02*
D03*
X3306D02*
D03*
X5605D02*
D03*
X4449D02*
D03*
X8718Y8153D02*
D03*
X7654Y6591D02*
D03*
X16679Y1448D02*
D03*
X16997Y3924D02*
D03*
D40*
X18562Y4788D02*
D03*
X17932Y8255D02*
D03*
D41*
X15888Y4788D02*
D03*
X15959Y8255D02*
D03*
D54*
X17031Y5782D02*
D03*
X18732Y7528D02*
D03*
D63*
X14433Y787D02*
D03*
X15387D02*
D03*
Y597D02*
D03*
X14433D02*
D03*
X15576Y622D02*
D03*
X16530D02*
D03*
Y826D02*
D03*
X15576D02*
D03*
D64*
X15875Y2832D02*
D03*
X15367Y2705D02*
D03*
X15875Y2578D02*
D03*
X15367Y2451D02*
D03*
X15875Y2324D02*
D03*
X15367Y2197D02*
D03*
X15875Y2070D02*
D03*
X15367Y1943D02*
D03*
X15875Y1816D02*
D03*
X15367Y1689D02*
D03*
X15875Y1562D02*
D03*
X15367Y1435D02*
D03*
X15875Y1308D02*
D03*
X15367Y1181D02*
D03*
X4902Y293D02*
D03*
X829Y182D02*
D03*
X7961Y295D02*
D03*
X5890D02*
D03*
X1968Y293D02*
D03*
X2908D02*
D03*
X6969Y305D02*
D03*
X3886Y293D02*
D03*
X15696Y293D02*
D03*
X16256Y6261D02*
D03*
Y6515D02*
D03*
D65*
X15875Y1054D02*
D03*
X4702Y293D02*
D03*
X1029Y182D02*
D03*
X7761Y295D02*
D03*
X5690D02*
D03*
X1768Y293D02*
D03*
X2708D02*
D03*
X6769Y305D02*
D03*
X3686Y293D02*
D03*
X15496Y293D02*
D03*
D66*
X19449Y3518D02*
D03*
X16459D02*
D03*
D67*
X3274Y9309D02*
D03*
X3528Y9055D02*
D03*
Y9309D02*
D03*
X4036D02*
D03*
X4798Y9055D02*
D03*
X5052D02*
D03*
X5306D02*
D03*
X5560D02*
D03*
Y9309D02*
D03*
X5306D02*
D03*
X5052D02*
D03*
X4798D02*
D03*
X4544D02*
D03*
Y9055D02*
D03*
X4290Y9309D02*
D03*
Y9055D02*
D03*
X4036D02*
D03*
X3782Y9309D02*
D03*
Y9055D02*
D03*
D68*
X4697Y4724D02*
D03*
X4951D02*
D03*
X5205D02*
D03*
X5459Y4470D02*
D03*
Y4724D02*
D03*
X5713Y4470D02*
D03*
X4189Y4724D02*
D03*
X4443Y4470D02*
D03*
Y4724D02*
D03*
X4697Y4470D02*
D03*
X4951D02*
D03*
X5205D02*
D03*
X5713Y4724D02*
D03*
X5967Y4470D02*
D03*
Y4724D02*
D03*
D69*
X13081Y3917D02*
D03*
X15367Y8159D02*
D03*
X17900Y5359D02*
D03*
X4401Y7137D02*
D03*
Y8115D02*
D03*
Y7518D02*
D03*
Y6718D02*
D03*
X13952Y7480D02*
D03*
X12778Y7468D02*
D03*
X2210Y8478D02*
D03*
X2667D02*
D03*
X4006Y1889D02*
D03*
X5149D02*
D03*
X1720D02*
D03*
X2863D02*
D03*
X7448D02*
D03*
X1334Y3904D02*
D03*
X16020Y3924D02*
D03*
X16300Y5410D02*
D03*
X7614Y3543D02*
D03*
X8135Y3988D02*
D03*
X952Y3904D02*
D03*
X1720Y1228D02*
D03*
X4006D02*
D03*
X2863D02*
D03*
X5149D02*
D03*
X6305D02*
D03*
Y1889D02*
D03*
X8018Y7518D02*
D03*
X8918Y6833D02*
D03*
X7880Y6045D02*
D03*
X6941Y5474D02*
D03*
X4597Y3119D02*
D03*
X3693Y4630D02*
D03*
X3108D02*
D03*
X2524D02*
D03*
X1940D02*
D03*
X16987Y8649D02*
D03*
X3365Y4057D02*
D03*
X17805Y5994D02*
D03*
Y6248D02*
D03*
Y6502D02*
D03*
X14224Y5492D02*
D03*
X13183Y5479D02*
D03*
X12789Y5492D02*
D03*
X10465Y5479D02*
D03*
X11354D02*
D03*
X10871D02*
D03*
X16020Y3188D02*
D03*
X7448Y1228D02*
D03*
X12471Y8998D02*
D03*
X11887D02*
D03*
X11303D02*
D03*
X10795Y8997D02*
D03*
X14503Y8984D02*
D03*
X14021Y8959D02*
D03*
X13500Y8984D02*
D03*
X12992Y9010D02*
D03*
X13652Y5479D02*
D03*
X14796D02*
D03*
D70*
X4189Y4470D02*
D03*
D71*
X17000Y5359D02*
D03*
X5301Y7137D02*
D03*
Y8115D02*
D03*
Y7518D02*
D03*
Y6718D02*
D03*
X14852Y7480D02*
D03*
X13678Y7468D02*
D03*
X3106Y1889D02*
D03*
X4249D02*
D03*
X820D02*
D03*
X1963D02*
D03*
X6548D02*
D03*
X15120Y3924D02*
D03*
X15400Y5410D02*
D03*
X8515Y3543D02*
D03*
X9035Y3988D02*
D03*
X820Y1228D02*
D03*
X3106D02*
D03*
X1963D02*
D03*
X4249D02*
D03*
X5405D02*
D03*
Y1889D02*
D03*
X8918Y7518D02*
D03*
X8018Y6833D02*
D03*
X6979Y6045D02*
D03*
X7841Y5474D02*
D03*
X17887Y8649D02*
D03*
X15120Y3188D02*
D03*
X6548Y1228D02*
D03*
D72*
X16802Y1892D02*
D03*
X16929Y2042D02*
D03*
X17056Y1892D02*
D03*
X16853Y2896D02*
D03*
X16980Y3046D02*
D03*
X17107Y2896D02*
D03*
X13767Y3378D02*
D03*
X9614Y3099D02*
D03*
X9055Y3365D02*
D03*
X11367Y3454D02*
D03*
X14376Y3137D02*
D03*
X11951Y3188D02*
D03*
D73*
X19380Y8242D02*
D03*
Y8902D02*
D03*
D74*
X9436Y2156D02*
D03*
X13987Y250D02*
D03*
X13737D02*
D03*
X13487D02*
D03*
X9461D02*
D03*
X9211D02*
D03*
X8962D02*
D03*
X14110Y2182D02*
D03*
X11786D02*
D03*
X11256Y250D02*
D03*
X11506D02*
D03*
X11756D02*
D03*
D75*
X9436Y1806D02*
D03*
X14110Y1832D02*
D03*
X11786D02*
D03*
D76*
X14237Y250D02*
D03*
X9712D02*
D03*
X12006D02*
D03*
D77*
X2210Y9378D02*
D03*
X2667D02*
D03*
X1334Y3004D02*
D03*
X952D02*
D03*
X4597Y4019D02*
D03*
X3693Y5530D02*
D03*
X3108D02*
D03*
X2524D02*
D03*
X1940D02*
D03*
X3365Y3157D02*
D03*
X14224Y4592D02*
D03*
X13081Y3017D02*
D03*
X13183Y4579D02*
D03*
X12789Y4592D02*
D03*
X10465Y4579D02*
D03*
X11354D02*
D03*
X10871D02*
D03*
X15367Y7259D02*
D03*
X12471Y8098D02*
D03*
X11887D02*
D03*
X11303D02*
D03*
X10795Y8097D02*
D03*
X14503Y8084D02*
D03*
X14021Y8059D02*
D03*
X13500Y8084D02*
D03*
X12992Y8110D02*
D03*
X13652Y4579D02*
D03*
X14796D02*
D03*
D78*
X17755Y2464D02*
D03*
X16105D02*
D03*
D79*
X3274Y9055D02*
D03*
D80*
X13767Y3124D02*
D03*
X9055Y3111D02*
D03*
X11367Y3200D02*
D03*
D81*
X18712Y6922D02*
D03*
D82*
X19012Y6452D02*
D03*
D83*
X18392D02*
D03*
D84*
X17018Y6531D02*
D03*
D85*
Y6731D02*
D03*
D86*
X9360Y3099D02*
D03*
X14122Y3137D02*
D03*
X11697Y3188D02*
D03*
D87*
X10160Y2654D02*
D03*
X10414D02*
D03*
X10668D02*
D03*
X10922D02*
D03*
X11176D02*
D03*
X11430D02*
D03*
X11684D02*
D03*
X7798Y2680D02*
D03*
X8052D02*
D03*
X8306D02*
D03*
X8560D02*
D03*
X8814D02*
D03*
X9068D02*
D03*
X9322D02*
D03*
X7798Y1245D02*
D03*
X8052D02*
D03*
X8306D02*
D03*
X8560D02*
D03*
X8814D02*
D03*
X9068D02*
D03*
X9322D02*
D03*
X12992Y1257D02*
D03*
X10173Y1232D02*
D03*
X10427D02*
D03*
X10681D02*
D03*
X10935D02*
D03*
X11189D02*
D03*
X11443D02*
D03*
X11697D02*
D03*
X14021Y2667D02*
D03*
X13767D02*
D03*
X13513D02*
D03*
X13259D02*
D03*
X13005D02*
D03*
X12751D02*
D03*
X12497D02*
D03*
X14008Y1257D02*
D03*
X13754D02*
D03*
X13500D02*
D03*
X13246D02*
D03*
X12738D02*
D03*
X12484D02*
D03*
D88*
X11938Y2654D02*
D03*
X9576Y2680D02*
D03*
Y1245D02*
D03*
X11951Y1232D02*
D03*
X14275Y2667D02*
D03*
X14262Y1257D02*
D03*
D89*
X18745Y558D02*
D03*
X18237D02*
D03*
X16916Y558D02*
D03*
X17424D02*
D03*
D90*
X16256Y6007D02*
D03*
D91*
X15240Y6464D02*
D03*
D92*
Y6264D02*
D03*
D93*
X17757Y8462D02*
D03*
X11786Y4508D02*
D03*
X12134Y4731D02*
D03*
X11576Y5048D02*
D03*
X12129Y5232D02*
D03*
X12143Y5081D02*
D03*
X11989Y4928D02*
D03*
X11980Y5429D02*
D03*
X12306Y5639D02*
D03*
X12535Y5194D02*
D03*
X6515Y7709D02*
D03*
X6134Y8090D02*
D03*
X6007Y7175D02*
D03*
X11735Y6896D02*
D03*
X11227Y6883D02*
D03*
X11989Y6464D02*
D03*
X13106Y6794D02*
D03*
X1676Y8141D02*
D03*
X2502Y7252D02*
D03*
X8801Y3340D02*
D03*
X18479Y8026D02*
D03*
Y8217D02*
D03*
X18009Y8826D02*
D03*
X12535Y4585D02*
D03*
X13056Y5982D02*
D03*
X18034Y8052D02*
D03*
X11163Y5906D02*
D03*
X14122Y5994D02*
D03*
X6629Y5512D02*
D03*
X3785Y5144D02*
D03*
X2883Y6515D02*
D03*
X4940Y9728D02*
D03*
X16515Y9550D02*
D03*
X9957Y5050D02*
D03*
X9657Y8547D02*
D03*
X4432Y9545D02*
D03*
X9505Y5006D02*
D03*
X14501Y6683D02*
D03*
X11582Y5900D02*
D03*
X10780Y5131D02*
D03*
X9274Y7315D02*
D03*
X9014Y6162D02*
D03*
X9715Y2390D02*
D03*
X13185Y3195D02*
D03*
X6657Y3800D02*
D03*
X9368Y2451D02*
D03*
X6388Y8202D02*
D03*
X4244Y2888D02*
D03*
X6226Y5362D02*
D03*
X6906Y3706D02*
D03*
X10498Y5019D02*
D03*
X10719Y6868D02*
D03*
X14399Y5769D02*
D03*
X13614D02*
D03*
X5954Y2047D02*
D03*
X10668Y4473D02*
D03*
X10450Y2916D02*
D03*
X5042Y8331D02*
D03*
X7447Y5189D02*
D03*
X6043Y6111D02*
D03*
X8352Y7838D02*
D03*
X12555Y5436D02*
D03*
X8184Y7747D02*
D03*
X10160Y5771D02*
D03*
X6007Y7648D02*
D03*
X6828D02*
D03*
X8923Y8832D02*
D03*
X9855Y7137D02*
D03*
X7238Y4968D02*
D03*
X5375Y5880D02*
D03*
X4851Y6980D02*
D03*
X4674Y7544D02*
D03*
X18418Y2710D02*
D03*
X18979Y7774D02*
D03*
X11575Y4801D02*
D03*
M02*
